<svg width="153" height="28" viewBox="0 0 153 28" fill="none" xmlns="http://www.w3.org/2000/svg">
<path d="M140.934 7.41162H144.319L150.322 17.2208H150.541L150.322 15.4822V7.41162H152.829V20.4966H149.443L143.441 10.6874H143.221L143.441 12.426V20.4966H140.934V7.41162Z" fill="black"/>
<path d="M131.236 6.99072C135.481 6.99072 138.538 10.0469 138.538 13.9633C138.538 17.8796 135.481 20.9358 131.236 20.9358C126.99 20.9358 123.934 17.8796 123.934 13.9633C123.934 10.0469 126.971 6.99072 131.236 6.99072ZM131.236 18.5384C133.962 18.5384 135.921 16.5803 135.921 13.9633C135.921 11.3463 133.962 9.38811 131.236 9.38811C128.509 9.38811 126.551 11.3463 126.551 13.9633C126.551 16.5803 128.509 18.5384 131.236 18.5384Z" fill="black"/>
<path d="M119.008 7.41162H121.515V20.4966H119.008V7.41162Z" fill="black"/>
<path d="M105.375 7.41162H117.27V9.80901H112.585V20.4966H110.078V9.80901H105.375V7.41162Z" fill="black"/>
<path d="M96.0978 7.41162H102.027L105.706 20.4966H103.198L102.32 17.3306H95.7684L94.89 20.4966H92.3828L96.0978 7.41162ZM101.68 14.9515L100.27 9.82731H97.873L96.4639 14.9515H101.68Z" fill="black"/>
<path d="M80.8516 7.41162H92.747V9.80901H88.062V20.4966H85.5548V9.80901H80.8516V7.41162Z" fill="black"/>
<path d="M71.1355 16.5803C71.2453 16.9646 71.4466 17.3306 71.7211 17.6234C72.2152 18.1541 73.0388 18.6482 74.5211 18.6482C76.6989 18.6482 77.5773 17.7698 77.5773 16.9097C77.5773 15.5188 75.4545 15.1894 73.3316 14.7319C71.1904 14.2744 69.0858 13.3776 69.0858 10.9071C69.0858 8.83908 70.9342 6.97241 74.4296 6.97241C76.8819 6.97241 78.2911 7.96065 79.0963 8.93058C79.5721 9.5162 79.9015 10.175 80.1028 10.8888H77.4858C77.376 10.6142 77.2113 10.3214 76.9368 10.0835C76.4976 9.66261 75.729 9.25999 74.4296 9.25999C72.4531 9.25999 71.7028 9.91882 71.7028 10.779C71.7028 11.7672 72.9107 12.2247 74.393 12.5175C76.9002 13.0116 80.2126 13.6339 80.2126 16.7633C80.2126 18.941 78.2728 20.8992 74.5394 20.8992C71.776 20.8992 70.2205 19.8378 69.3969 18.7214C68.9211 18.0809 68.5917 17.3489 68.4453 16.5437H71.1355V16.5803Z" fill="black"/>
<path d="M63.6875 13.9633C63.6875 9.91883 60.4116 6.99072 55.8731 6.99072H50.0352V20.9541H55.8731C60.3933 20.9358 63.6875 18.0077 63.6875 13.9633ZM54.1894 17.4038V10.5228H55.7633C57.941 10.5228 59.3136 11.8404 59.3136 13.9633C59.3136 16.0862 57.9593 17.4038 55.7633 17.4038H54.1894Z" fill="black"/>
<path d="M45.4403 16.0129C45.8795 15.8116 46.2821 15.5005 46.6481 15.1162C47.4716 14.2744 47.8742 13.2313 47.8742 12.0051C47.8742 9.0404 45.5501 6.99072 42.2376 6.99072H34.7344V20.9541H38.8886V16.928H41.4324L43.7017 20.9541H47.8925L45.184 16.1411L45.4403 16.0129ZM41.835 13.579H38.9069V10.4129H41.835C42.8599 10.4129 43.6285 11.0901 43.6285 11.9868C43.6285 12.9018 42.8599 13.579 41.835 13.579Z" fill="black"/>
<path d="M14.168 19.8449L13.9945 19.7807L13.8209 19.845L0.5 24.7779V21.1976L13.9946 16.2004L27.5 21.1977V24.7781L14.168 19.8449Z" fill="black" stroke="black"/>
<path d="M13.9945 20.314L0 25.4963L5.19452 28L13.9945 24.7419L22.8055 28L28 25.4963L13.9945 20.314Z" fill="#19C1CE"/>
<path d="M13.8209 8.15494L13.9945 8.21921L14.168 8.15498L27.5 3.22181V6.80216L13.9946 11.7995L0.5 6.80226V3.222L13.8209 8.15494Z" fill="black" stroke="black"/>
<path d="M13.9945 7.68609L28 2.5037L22.8055 0L13.9945 3.25813L5.19452 0L0 2.5037L13.9945 7.68609Z" fill="#19C1CE"/>
</svg>
