<?xml version="1.0" encoding="UTF-8" standalone="no"?>
<!-- Created with Inkscape (http://www.inkscape.org/) -->

<svg
   xmlns:dc="http://purl.org/dc/elements/1.1/"
   xmlns:cc="http://creativecommons.org/ns#"
   xmlns:rdf="http://www.w3.org/1999/02/22-rdf-syntax-ns#"
   xmlns:svg="http://www.w3.org/2000/svg"
   xmlns="http://www.w3.org/2000/svg"
   xmlns:sodipodi="http://sodipodi.sourceforge.net/DTD/sodipodi-0.dtd"
   xmlns:inkscape="http://www.inkscape.org/namespaces/inkscape"
   version="1.1"
   id="svg2"
   xml:space="preserve"
   width="32"
   height="32"
   viewBox="0 0 32 32"
   sodipodi:docname="ico.svg"
   inkscape:version="0.92.4 (5da689c313, 2019-01-14)"
   inkscape:export-filename="C:\wamp64\www\combopay-template\assets\logo\icopng.png"
   inkscape:export-xdpi="96"
   inkscape:export-ydpi="96"><metadata
     id="metadata8"><rdf:RDF><cc:Work
         rdf:about=""><dc:format>image/svg+xml</dc:format><dc:type
           rdf:resource="http://purl.org/dc/dcmitype/StillImage" /><dc:title></dc:title></cc:Work></rdf:RDF></metadata><defs
     id="defs6"><clipPath
       clipPathUnits="userSpaceOnUse"
       id="clipPath18"><path
         d="M 0,1893 H 8239 V 0 H 0 Z"
         id="path16"
         inkscape:connector-curvature="0" /></clipPath></defs><sodipodi:namedview
     pagecolor="#ffffff"
     bordercolor="#666666"
     borderopacity="1"
     objecttolerance="10"
     gridtolerance="10"
     guidetolerance="10"
     inkscape:pageopacity="0"
     inkscape:pageshadow="2"
     inkscape:window-width="1366"
     inkscape:window-height="705"
     id="namedview4"
     showgrid="false"
     inkscape:zoom="6.5583533"
     inkscape:cx="36.532554"
     inkscape:cy="7.4175339"
     inkscape:window-x="-8"
     inkscape:window-y="-8"
     inkscape:window-maximized="1"
     inkscape:current-layer="g10" /><g
     id="g10"
     inkscape:groupmode="layer"
     inkscape:label="logotipo1"
     transform="matrix(1.3333333,0,0,-1.3333333,0,32)"><g
       id="g976"
       transform="matrix(0.15801551,0,0,0.15801551,16.030937,10.712998)"><path
         d="m 32.261491,47.363721 c -0.27082,1.639535 -0.734747,3.123969 -1.635472,4.492814 -3.094744,5.793906 -7.881706,9.248062 -14.354333,10.347266 -4.215245,0.71581 -8.4230851,0.575387 -12.5933131,-0.314264 -6.2090148,-1.324681 -11.8804514,-3.718686 -16.5545769,-8.209535 -1.233927,-1.185437 -1.504026,-3.577083 -3.249386,-3.710167 -1.66437,-0.126925 -3.395969,0.97536 -5.133269,1.388438 -4.266355,1.014413 -8.497261,2.244408 -12.976249,1.943708 -5.847571,-0.392568 -11.073166,-2.107524 -14.572929,-7.126842 -3.456187,-4.956872 -4.559913,-10.560555 -3.783098,-16.520766 0.77308,-5.931183 3.8232,-10.69259 7.862769,-14.917598 1.735006,-1.880999 3.746469,-3.398851 6.087725,-4.429384 1.918874,-0.8445695 3.815796,-1.8534787 6.03786,-1.5500917 0.262826,-0.073783 0.596814,-0.2838602 0.773342,-0.1918612 0.330908,0.1725964 0.165454,0.4839121 -0.07287,0.6816051 -0.264137,0.2191201 -0.565361,0.3940099 -0.826943,0.6158166 -3.976663,3.3713962 -8.011186,6.6890612 -10.678174,11.2986432 -1.916318,3.303838 -3.895148,6.577535 -4.125997,10.547252 -0.248018,4.265438 1.30653,7.805302 5.26419,9.919248 2.947834,1.574467 6.147748,1.682979 9.286591,1.611293 5.102275,-0.116571 10.076118,-1.202409 14.917008,-2.885518 2.479058,-0.861934 2.543405,-0.802764 4.180122,1.333788 3.17449,4.144214 6.9334746,7.591359 11.6306655,9.943034 4.4356097,2.220754 8.948606,2.759184 13.7375995,1.019787 3.181304,-1.155426 5.535666,-3.267209 7.76022,-5.644636 0.617651,-0.700215 1.052681,-1.50003 1.411765,-2.363601 C 23.280646,38.327506 22.660177,31.924402 20.96501,25.582959 17.811227,13.785005 11.153881,4.0010692 2.9715402,-4.8440707 1.4667276,-6.4707624 -0.10721537,-8.0236713 -1.7257162,-9.5302532 c 0.2714101,0.07588 0.5518629,0.1173577 0.83447805,0.1173577 1.42172522,0 2.55670715,-0.8955485 3.04212635,-2.1213505 0.119389,0.06992 0.2389746,0.139244 0.3579049,0.210143 0.7314706,-0.0075 1.3214044,0.345455 1.9061615,0.729636 6.9256764,4.5501501 12.4781174,10.45610557 16.9010144,17.4119242 3.549497,5.5823208 6.24879,11.5642868 8.236007,17.9025848 2.321075,7.402774 4.002415,14.815836 2.709515,22.643679"
         style="fill:#f40c0c;fill-opacity:1;fill-rule:nonzero;stroke:none;stroke-width:0.06552635"
         id="path22"
         inkscape:connector-curvature="0" /><path
         d="m -43.407428,21.161477 c -4.67596,4.780868 -6.919189,14.321701 -1.57663,19.180021 1.49446,1.358951 3.218065,2.299582 5.144998,2.732056 5.772086,1.295587 11.474975,0.576239 17.12256,-0.852105 1.898298,-0.480111 3.838861,-0.897711 5.633038,-1.647922 1.152674,-0.481946 1.674723,-0.144027 2.266491,0.68036 1.998095,2.783691 4.325067,5.276116 6.9938895,7.412144 4.0460555,3.238313 8.51672179,5.698827 13.8579056,5.499168 5.0855659,-0.190092 9.5989549,-1.934469 12.7646639,-6.23339 0.199266,-0.270624 0.297752,-0.615489 0.443286,-0.925953 -1.327105,0.2969 -2.204896,1.375791 -3.432663,1.911207 -6.6097744,2.882504 -12.6049112,1.337393 -18.3640877,-2.296371 -3.6206584,-2.284445 -6.4736102,-5.392295 -8.9790103,-8.78787 -0.942859,-1.277895 -1.753682,-1.311248 -3.055297,-0.8658 -5.6525,1.9346 -11.458855,3.170034 -17.45373,3.027514 -3.170623,-0.07535 -6.308221,-0.568113 -8.986414,-2.61188 -3.823659,-2.917823 -4.518894,-6.841868 -3.884861,-11.278395 0.247886,-1.735138 1.351809,-3.190675 1.505861,-4.942784"
         style="fill:#c2c3cc;fill-opacity:1;fill-rule:nonzero;stroke:none;stroke-width:0.06552635"
         id="path26"
         inkscape:connector-curvature="0" /><path
         d="M 25.126575,-11.087493 C 19.980267,-14.843594 14.923467,-18.7259 9.7063246,-22.379845 c -3.2712065,-2.291064 -7.1539703,-3.039637 -11.0683179,-3.450553 -5.4402597,-0.571193 -10.8952627,-0.853808 -16.3699897,-0.792213 -5.333582,0.05996 -10.56822,0.562216 -15.562508,2.646871 -1.933289,0.806957 -3.98066,1.312559 -6.08078,1.513069 -4.548183,0.434309 -8.408734,-1.003012 -11.603275,-4.271335 -2.2085,-2.25948 -2.868547,-2.252665 -5.115052,0.02955 -2.079085,2.112046 -4.26072,4.105292 -6.584415,5.948024 -1.924181,1.525912 -2.072271,2.770454 -0.466548,4.565876 3.217934,3.598183 6.650794,6.9525422 11.020353,9.1797829 4.832765,2.4633976 9.978549,3.1847116 15.324713,2.7525653 0.643075,-0.052028 1.30653,-0.237533 1.896136,-0.5037665 5.575244,-2.5169327 11.490111,-3.3565873 17.526529,-3.5172579 3.328411,-0.088592 6.661474,-0.00957 9.9923754,0.00603 1.2365477,0.00577 2.4666739,-0.016119 3.6700653,-0.3479449 2.0371487,-0.5617574 3.48397054,-1.7908349 4.25377409,-3.7747759 0.55048691,-1.418777 0.19009195,-1.983614 -1.34283149,-2.072861 -7.0249489,-0.40895 -14.0560573,-0.336281 -21.0868383,-0.24153 -2.137207,0.02883 -4.273694,0.107988 -6.410836,0.145927 -1.043441,0.01854 -2.30751,-1.092324 -2.30692,-2.118467 6.55e-4,-1.267345 1.027911,-1.445183 1.975095,-1.592486 0.646483,-0.100452 1.309544,-0.128629 1.965332,-0.130136 4.523611,-0.01055 9.047288,-0.0056 13.570965,-0.0056 v -0.03827 c 4.564828,0 9.1297212,0.01173 13.69454883,-0.0064 1.61037557,-0.0064 2.91618467,0.456063 3.98885107,1.771701 1.4309644,1.755058 3.3728378,2.887616 5.4688951,3.682057 3.801445,1.440794 7.615931,2.850986 11.511145,4.0270527 1.355674,0.4093431 2.596809,0.2973585 3.65447,-0.7519149 0.505142,-0.5012108 0.57578,-0.8713688 -0.09469,-1.3607198 M -53.28665,-36.074471 c -1.935845,-1.77583 -3.889578,-3.53246 -5.805634,-5.329389 -0.491186,-0.460716 -0.772753,-0.337919 -1.206078,0.07142 -5.790498,5.470139 -11.588466,10.93235 -17.414021,16.365075 -0.628987,0.586526 -0.533188,0.900659 0.03027,1.425198 1.682848,1.566538 3.342368,3.16027 4.959624,4.79417 0.536792,0.542296 0.842341,0.503701 1.392042,0.0073 5.970106,-5.391246 11.966291,-10.75366 17.958872,-16.120072 0.207129,-0.185505 0.450363,-0.330711 0.715876,-0.522966 -0.308499,-0.339819 -0.455998,-0.530173 -0.630954,-0.690713 m 84.778254,27.2490668 c -0.289233,0.2892333 -0.60874,0.5545495 -0.941548,0.7928033 C 26.069958,-4.8255984 21.200891,-4.24379 16.037022,-5.9878393 12.728793,-7.1051946 9.5141358,-8.471419 6.334142,-9.9129332 5.729727,-10.186899 5.1091269,-10.429543 4.7024049,-9.7521315 3.915761,-8.4419977 2.8476815,-7.368414 1.9006947,-6.1931989 c -3.8064912,2.5166706 -8.0958461,2.6394014 -12.4441747,2.5561174 -3.001434,-0.057467 -6.008176,-0.099141 -9.006793,0.0097 -4.119118,0.1494656 -8.160783,0.8538739 -11.997351,2.4115008 -3.13406,1.27252167 -6.331549,1.91736648 -9.717754,1.55225366 -0.635606,-0.0685406 -1.315114,-0.21223985 -1.932045,0.15654245 -1.099597,-0.77825646 -2.431682,-0.52480054 -3.645361,-0.78946147 -8.05142,-1.75577854 -14.18829,-6.44962754 -19.418472,-12.53551894 -1.820584,-2.118532 -2.352855,-2.269963 -4.565483,-0.677083 -0.647662,0.466285 -1.267738,0.520148 -1.958321,0.203852 -0.71961,-0.329597 -1.310658,-0.835788 -1.88801,-1.366683 -2.571516,-2.364518 -5.147685,-4.723926 -7.726933,-7.079991 -1.718035,-1.569422 -1.772815,-2.972406 -0.15877,-4.640314 0.314199,-0.324618 0.649956,-0.628791 0.983288,-0.93434 4.060078,-3.721766 8.126512,-7.436717 12.180759,-11.164773 2.360259,-2.170364 4.682513,-4.382402 7.057646,-6.536188 1.841684,-1.669939 3.40416,-1.790376 5.033472,-0.32121 2.930208,2.642154 5.82182,5.328406 8.682504,8.045784 1.325729,1.259351 1.303057,1.953734 0.153725,3.341713 -0.930081,1.123121 -1.07057,1.992197 -0.311578,2.874706 2.638746,3.068075 5.734932,4.881648 10.044665,4.161448 2.696803,-0.450691 5.276247,-1.239366 7.857003,-2.034135 5.114331,-1.575057 10.331867,-2.309541 15.667481,-2.312752 6.2283452,-0.0038 12.3682297,0.86344 18.501365,1.836965 2.7680952,0.439355 5.2414528,1.416615 7.561937,3.041144 5.41903,3.793517 10.947488,7.430622 16.42726,11.137579 1.327367,0.897908 2.655914,1.795881 3.951435,2.738608 1.557431,1.133344 1.628265,2.323892 0.259419,3.6924103"
         style="fill:#137abd;fill-opacity:1;fill-rule:nonzero;stroke:none;stroke-width:0.06552635"
         id="path30"
         inkscape:connector-curvature="0" /></g></g></svg>