<?xml version="1.0" encoding="UTF-8" standalone="no"?>
<!-- Created with Inkscape (http://www.inkscape.org/) -->

<svg
   xmlns:dc="http://purl.org/dc/elements/1.1/"
   xmlns:cc="http://creativecommons.org/ns#"
   xmlns:rdf="http://www.w3.org/1999/02/22-rdf-syntax-ns#"
   xmlns:svg="http://www.w3.org/2000/svg"
   xmlns="http://www.w3.org/2000/svg"
   xmlns:sodipodi="http://sodipodi.sourceforge.net/DTD/sodipodi-0.dtd"
   xmlns:inkscape="http://www.inkscape.org/namespaces/inkscape"
   version="1.1"
   id="svg2"
   xml:space="preserve"
   width="11361.333"
   height="3954.6667"
   viewBox="0 0 11361.333 3954.6667"
   sodipodi:docname="logo.svg"
   inkscape:version="0.92.4 (5da689c313, 2019-01-14)"><metadata
     id="metadata8"><rdf:RDF><cc:Work
         rdf:about=""><dc:format>image/svg+xml</dc:format><dc:type
           rdf:resource="http://purl.org/dc/dcmitype/StillImage" /><dc:title></dc:title></cc:Work></rdf:RDF></metadata><defs
     id="defs6"><clipPath
       clipPathUnits="userSpaceOnUse"
       id="clipPath18"><path
         d="M 0,2966 H 8521 V 0 H 0 Z"
         id="path16"
         inkscape:connector-curvature="0" /></clipPath></defs><sodipodi:namedview
     pagecolor="#ffffff"
     bordercolor="#666666"
     borderopacity="1"
     objecttolerance="10"
     gridtolerance="10"
     guidetolerance="10"
     inkscape:pageopacity="0"
     inkscape:pageshadow="2"
     inkscape:window-width="1366"
     inkscape:window-height="705"
     id="namedview4"
     showgrid="false"
     inkscape:zoom="0.035031101"
     inkscape:cx="8145.9792"
     inkscape:cy="2805.3556"
     inkscape:window-x="-8"
     inkscape:window-y="-8"
     inkscape:window-maximized="1"
     inkscape:current-layer="g10" /><g
     id="g10"
     inkscape:groupmode="layer"
     inkscape:label="logotipo2"
     transform="matrix(1.3333333,0,0,-1.3333333,0,3954.6667)"><g
       id="g12"><g
         id="g14"
         clip-path="url(#clipPath18)"><g
           id="g20"
           transform="translate(6781.749,2328.5083)"><path
             d="m 0,0 c 24.805,35.758 46.455,67.137 74.432,93.487 63.472,59.783 158.87,79.208 229.322,47.035 16.885,-7.711 24.877,-16.821 22.585,-36.943 -6.514,-57.206 -10.354,-114.711 -16.383,-171.979 -3.817,-36.243 -18.802,-47.07 -56.689,-43.565 -34.357,3.179 -68.492,9.779 -103.272,5.22 -70.799,-9.28 -131.022,-77.37 -131.024,-148.423 -0.005,-167.286 -0.369,-334.574 0.448,-501.856 0.105,-21.712 -4.25,-30.004 -28.125,-29.49 -74.97,1.616 -150.002,1.046 -224.998,0.263 -17.547,-0.184 -24.996,2.874 -24.949,23.145 0.687,292.268 0.627,584.539 0.097,876.807 -0.033,18.452 4.507,24.855 23.802,24.313 48.042,-1.351 96.158,0.208 144.225,-0.633 C -39.56,136.49 -24.027,122.91 -14.215,73.635 -9.724,51.085 -5.488,28.483 0,0"
             style="fill:#f40c0c;fill-opacity:1;fill-rule:nonzero;stroke:none"
             id="path22"
             inkscape:connector-curvature="0" /></g><g
           id="g24"
           transform="translate(7013.2559,684.1001)"><path
             d="m 0,0 c 0,59.645 -0.465,119.296 0.293,178.931 0.218,17.122 -2.08,26.705 -22.962,25.371 -86.519,-5.529 -75.949,19.961 -75.56,78.251 0.303,45.323 -0.279,49.015 45.837,53.266 50.393,4.644 75.714,26.106 80.996,77.389 3.607,35.008 16.115,69.055 23.929,103.693 4.905,21.743 17.819,34.053 39.806,34.614 33.655,0.86 67.359,-0.274 101.013,0.615 18.577,0.491 16.335,-11.498 16.335,-22.993 0,-51.949 0.978,-103.925 -0.472,-155.834 -0.582,-20.807 6.407,-26.11 26.199,-25.445 41.328,1.39 82.77,-0.579 124.094,0.858 19.432,0.675 24.53,-6.02 23.8,-24.472 -1.33,-33.618 -1,-67.342 -0.12,-100.989 0.401,-15.279 -5.128,-19.829 -20.023,-19.555 -43.283,0.797 -86.603,-0.259 -129.887,0.546 -16.075,0.298 -24.19,-2.037 -24.024,-21.509 0.923,-108.7 -0.16,-217.417 0.732,-326.118 0.379,-46.235 31.884,-66.435 74.199,-46.988 27.564,12.668 44.687,7.555 59.322,-18.46 14.579,-25.916 31.119,-50.816 48.091,-75.266 8.416,-12.122 8.668,-19.185 -5.001,-27.151 -87.471,-50.976 -179.858,-68.74 -276.268,-32.759 C 38.924,-317.356 5.578,-258.188 1.463,-184.645 -1.972,-123.276 0.758,-61.562 0.758,-0.001 0.506,-0.001 0.253,0 0,0"
             style="fill:#1679bd;fill-opacity:1;fill-rule:nonzero;stroke:none"
             id="path26"
             inkscape:connector-curvature="0" /></g><g
           id="g28"
           transform="translate(8393.3887,838.3467)"><path
             d="m 0,0 c 0,-159.604 -0.43,-319.209 0.508,-478.808 0.126,-21.49 -5.174,-27.924 -27.034,-27.197 -50.912,1.695 -102.018,2.438 -152.846,-0.219 -27.548,-1.44 -30.633,9.189 -30.545,32.616 0.801,212.482 0.47,424.967 0.47,637.452 0,104.8 0.635,209.607 -0.524,314.394 -0.239,21.597 5.348,27.902 27.125,27.19 50.913,-1.663 101.961,-1.758 152.867,0.019 23.347,0.814 30.773,-4.821 30.587,-29.525 C -0.583,317.289 0,158.642 0,0"
             style="fill:#1679bd;fill-opacity:1;fill-rule:nonzero;stroke:none"
             id="path30"
             inkscape:connector-curvature="0" /></g><g
           id="g32"
           transform="translate(6822.6582,682.375)"><path
             d="m 0,0 c 0.001,-107.631 -0.619,-215.269 0.523,-322.888 0.229,-21.563 -5.3,-27.794 -27.076,-27.146 -54.738,1.63 -109.566,1.09 -164.34,0.205 -16.261,-0.262 -21.273,4.523 -21.236,21.036 0.495,219.105 0.612,438.212 -0.13,657.316 -0.07,20.624 8.232,23.597 25.556,23.352 53.815,-0.762 107.669,-1.134 161.464,0.156 20.527,0.492 25.797,-6.495 25.642,-26.258 C -0.443,217.187 0,108.592 0,0"
             style="fill:#1679bd;fill-opacity:1;fill-rule:nonzero;stroke:none"
             id="path34"
             inkscape:connector-curvature="0" /></g><g
           id="g36"
           transform="translate(5738.8359,682.27)"><path
             d="m 0,0 c 0,-107.721 -0.675,-215.45 0.561,-323.156 0.251,-22.053 -6.054,-27.353 -27.3,-26.742 -53.826,1.545 -107.74,1.148 -161.591,0.139 -16.664,-0.312 -20.81,4.979 -20.774,21.131 0.494,219.287 0.527,438.577 -0.037,657.865 -0.045,17.564 4.611,23.205 22.511,22.846 53.849,-1.083 107.758,-1.315 161.592,0.08 C -4.355,352.7 0.581,345.797 0.421,326.045 -0.463,217.369 -0.001,108.683 0,0"
             style="fill:#1679bd;fill-opacity:1;fill-rule:nonzero;stroke:none"
             id="path38"
             inkscape:connector-curvature="0" /></g><g
           id="g40"
           transform="translate(5761.0215,1225.0391)"><path
             d="m 0,0 c 0.033,-68.007 -57.832,-123.365 -128.903,-123.317 -66.154,0.045 -123.847,56.829 -124.232,122.273 -0.399,67.956 55.825,123.984 124.523,124.086 C -56.926,123.147 -0.033,68.719 0,0"
             style="fill:#1679bd;fill-opacity:1;fill-rule:nonzero;stroke:none"
             id="path42"
             inkscape:connector-curvature="0" /></g><g
           id="g44"
           transform="translate(6590.4844,1224.4453)"><path
             d="M 0,0 C -0.259,68.452 56.077,123.959 125.482,123.637 196.144,123.309 252.075,69.703 252.904,1.515 253.713,-64.95 196.346,-121.548 126.983,-122.719 58.797,-123.87 0.254,-67.292 0,0"
             style="fill:#1679bd;fill-opacity:1;fill-rule:nonzero;stroke:none"
             id="path46"
             inkscape:connector-curvature="0" /></g><g
           id="g48"
           transform="translate(4088.2944,1981.3799)"><path
             d="m 0,0 c -54.413,-129.898 -155.867,-196.418 -294.733,-204.462 -69.028,-3.998 -138.464,-0.5 -207.677,-2.08 -20.319,-0.463 -23.275,7.415 -23.193,25.001 0.606,130.781 0.329,261.566 0.329,392.351 -10e-4,128.86 0.713,257.728 -0.626,386.575 -0.256,24.613 6.894,30.201 30.37,29.462 70.133,-2.209 140.826,3.094 210.426,-3.611 C -118.951,607.23 -14.381,511.955 23.32,347.689 50.392,229.735 47.208,112.697 0,0 m 336.658,336.237 c -56.275,330.878 -325.781,512.161 -621.67,520.201 -172.125,4.678 -344.467,1.146 -516.708,2.152 -19.054,0.111 -26.276,-3.192 -26.241,-24.555 0.672,-415.641 0.706,-831.285 -0.063,-1246.926 -0.042,-22.766 7.236,-26.595 27.762,-26.359 91.408,1.057 182.836,0.459 291.451,0.459 90.397,2.795 198.378,-6.789 305.561,8.614 145.045,20.844 273.841,77.837 375.465,184.671 156.19,164.197 201.494,363.886 164.443,581.743"
             style="fill:#f40c0c;fill-opacity:1;fill-rule:nonzero;stroke:none"
             id="path50"
             inkscape:connector-curvature="0" /></g><g
           id="g52"
           transform="translate(5152.0576,1835.063)"><path
             d="m 0,0 c -25.299,-69.971 -80.717,-101.26 -161.63,-100.158 -77.141,1.051 -130.485,36.066 -156.788,104.312 -20.695,53.696 -25.924,109.986 -25.162,161.777 -0.31,61.31 4.438,116.726 25.316,169.331 27.686,69.758 80.156,103.126 160.085,103.444 80.764,0.32 134.394,-30.767 159.518,-102.837 C 40.131,224.593 40.157,111.067 0,0 m 312.535,207.896 c -9.526,152.162 -66.167,279.534 -197.899,364.731 -94.741,61.273 -201.175,79.147 -311.859,71.569 -141.795,-9.708 -262.616,-62.759 -348.07,-181.094 -58.175,-80.56 -81.546,-173.136 -84.447,-270.861 -3.101,-104.499 14.807,-204.981 71.475,-295.113 69.041,-109.811 170.578,-172.049 296.742,-194.187 136.101,-23.882 267.111,-9.326 384.052,69.459 130.062,87.625 182.055,217.808 191.125,376.627 3.352,14.824 0.258,36.872 -1.119,58.869"
             style="fill:#f40c0c;fill-opacity:1;fill-rule:nonzero;stroke:none"
             id="path54"
             inkscape:connector-curvature="0" /></g><g
           id="g56"
           transform="translate(5159.0518,660.9048)"><path
             d="m 0,0 c -41.545,-95.411 -118.212,-144.146 -221.325,-149.417 -50.876,-2.601 -102.009,0.244 -152.989,-0.943 -18.489,-0.431 -22.275,6.445 -22.153,23.403 0.699,97.18 0.34,194.366 0.339,291.551 0,95.26 0.567,190.526 -0.435,285.775 -0.226,21.416 3.576,30.681 27.974,29.604 49.949,-2.205 100.305,2.25 150.043,-1.696 C -98.097,468.723 -19.593,404.683 14.398,287.786 42.587,190.847 40.643,93.338 0,0 m -206.655,653.849 c -130.68,3.75 -261.536,1.037 -392.296,2.643 -23.222,0.284 -28.764,-6.913 -28.631,-29.231 0.915,-153.852 0.481,-307.712 0.481,-461.57 10e-4,-155.781 0.267,-311.563 -0.353,-467.342 -0.073,-18.452 2.238,-27.098 24.273,-26.899 123.1,1.107 246.241,-1.05 369.321,0.863 274.304,4.264 464.206,170.175 497.056,432.044 36.946,294.513 -172.527,540.958 -469.851,549.492"
             style="fill:#1679bd;fill-opacity:1;fill-rule:nonzero;stroke:none"
             id="path58"
             inkscape:connector-curvature="0" /></g><g
           id="g60"
           transform="translate(6068.6826,1781.5859)"><path
             d="m 0,0 c -37.978,-37.319 -81.858,-63.338 -135.923,-68.083 -18.071,-1.586 -36.61,-1.645 -54.606,0.44 -40.296,4.67 -62.402,22.497 -70.041,53.614 -10.198,41.528 1.33,76.53 34.154,98.892 37.436,25.502 81.002,34.293 124.546,41.206 30.205,4.796 61.206,4.45 91.518,8.747 18.514,2.625 21.535,-4.963 20.734,-20.32 C 9.583,99.182 10.207,83.793 10.207,64.468 4.671,45.941 20.578,20.223 0,0 m 279.549,87.1 c 0.001,85.628 0.407,171.257 -0.086,256.882 -0.933,161.94 -83.764,286.572 -223.473,336.599 -66.694,23.882 -135.743,24.675 -205.12,18.427 -119.838,-10.793 -227.507,-52.179 -321.21,-128.777 -12.776,-10.444 -16.039,-17.805 -5.899,-32.529 14.101,-20.477 24.793,-43.267 37.652,-64.641 27.879,-46.342 68.161,-62.01 120.755,-47.647 22.47,6.136 42.495,17.627 62.702,28.659 44.703,24.405 91.9,38.127 143.381,36.334 65.209,-2.271 106.208,-37.231 117.351,-101.048 3.989,-22.848 4.217,-45.846 5.015,-68.925 0.572,-16.53 -5.061,-20.424 -21.152,-21.201 -66.191,-3.191 -132.485,-6.96 -197.437,-21.402 -92.645,-20.601 -181.177,-49.696 -253.162,-116.35 -111.127,-102.896 -89.113,-345.872 95.781,-397.945 137.189,-38.637 262.146,-14.129 373.648,76.004 32.057,25.913 34.468,25.865 47.08,-12.991 14.96,-46.093 44.882,-66.795 92.463,-65.687 35.586,0.828 71.261,1.335 106.79,-0.305 20.971,-0.968 25.499,6.847 25.327,26.367 -0.88,100.052 -0.407,200.116 -0.406,300.176"
             style="fill:#f40c0c;fill-opacity:1;fill-rule:nonzero;stroke:none"
             id="path62"
             inkscape:connector-curvature="0" /></g><g
           id="g64"
           transform="translate(6273.9307,253.7451)"><path
             d="m 0,0 c -35.269,-14.687 -72.885,-15.069 -112.355,-15.914 -31.465,1.26 -65.133,0.773 -97.237,13.028 -32.118,12.261 -47.281,34.975 -41.71,63.261 6.239,31.683 35.551,55.522 66.654,53.92 54.526,-2.807 109.398,-1.789 163.282,-12.138 C 0.065,98.041 23.335,94.312 34.698,71.953 47.808,46.16 31.901,13.285 0,0 m -120.249,649.8 c 62.22,-0.296 95.986,-31.774 95.94,-89.441 -0.046,-60.033 -36.056,-94.021 -99.031,-93.475 -60.668,0.527 -96.525,35.672 -95.919,94.014 0.616,59.274 33.957,89.211 99.01,88.902 M 78.684,257.601 c -46.482,8.216 -93.326,12.027 -140.547,13.262 -39.301,1.029 -78.982,1.471 -117.189,12.473 -15.219,4.383 -30.452,12.828 -25.795,32.23 4.233,17.633 16.462,25.471 36.693,24.027 41.211,-2.941 82.508,-3.31 123.591,4.641 146.301,28.314 229.621,138.268 201.771,265.198 -3.029,13.807 2.476,19.254 14.999,21.389 92.991,15.853 71.352,34.093 73.869,100.872 0.073,1.922 -0.225,3.881 0.038,5.769 2.565,18.355 -6.447,22.63 -23.358,22.33 -50.031,-0.887 -100.098,0.206 -150.133,-0.544 -23.388,-0.351 -44.89,4.257 -67.256,11.599 -99.795,32.76 -199.219,31.156 -294.28,-16.011 -153.797,-76.31 -166.349,-270.344 -25.035,-366.611 5.12,-3.488 12.413,-4.973 13.956,-12.561 -102.445,-68.008 -116.823,-152.388 -36.067,-225.261 -10.384,-5.424 -18.87,-9.841 -27.34,-14.286 -97.063,-50.945 -83.508,-164.514 -23.12,-218.419 22.475,-20.062 47.873,-35.606 76.051,-46.043 108.931,-40.349 220.348,-43.32 331.73,-14.82 72.268,18.494 135.217,55.224 177.519,119.954 81.03,123.986 24.852,255.189 -120.097,280.812"
             style="fill:#1679bd;fill-opacity:1;fill-rule:nonzero;stroke:none"
             id="path66"
             inkscape:connector-curvature="0" /></g><g
           id="g68"
           transform="translate(7795.7842,482.1792)"><path
             d="m 0,0 c -30.08,-18.238 -63.363,-20.855 -97.28,-18.519 -34.493,2.377 -52.573,16.609 -58.879,44.658 -6.68,29.706 5.009,57.032 32.365,73.414 38.988,23.345 83.125,28.083 126.883,32.886 46.762,5.134 46.848,4.351 46.848,-55.168 C 62.127,37.669 31.006,18.799 0,0 m 254.539,97.421 c -10e-4,66.343 0.53,132.691 -0.111,199.028 -1.335,137.925 -84.51,242.804 -211.709,263.07 -108.018,17.21 -210.548,-2.724 -305.066,-58.077 -70.242,-41.136 -70.722,-47.173 -25.284,-114.821 16.302,-24.271 37.852,-36.012 67.984,-34.98 26.512,0.907 47.824,13.564 69.667,25.122 33.8,17.887 68.932,28.834 107.484,27.299 48.118,-1.916 76.143,-25.177 88.079,-71.602 4.893,-19.03 3.453,-38.147 4.548,-57.276 0.769,-13.459 -5.815,-15.011 -17.214,-15.809 -38.298,-2.682 -76.768,-4.958 -114.683,-10.649 -77.635,-11.657 -152.578,-32.182 -214.333,-84.085 -58.369,-49.056 -72.941,-113.259 -56.785,-185.073 15.301,-68.009 58.663,-111.486 125.867,-128.744 102.685,-26.368 196.415,-6.948 277.931,61.874 19.525,16.486 25.856,12.838 33.734,-9.773 15.035,-43.145 28.79,-51.491 74.91,-52.16 22.114,-0.32 44.342,1.293 66.324,-0.441 21.814,-1.722 29.791,4.179 29.258,27.89 -1.645,73.036 -0.6,146.134 -0.601,219.207"
             style="fill:#1679bd;fill-opacity:1;fill-rule:nonzero;stroke:none"
             id="path70"
             inkscape:connector-curvature="0" /></g><g
           id="g72"
           transform="translate(2803.1602,2491.4092)"><path
             d="m 0,0 c -6.255,37.87 -16.972,72.157 -37.776,103.775 -71.482,133.826 -182.05,213.61 -331.556,238.999 -97.361,16.534 -194.554,13.29 -290.876,-7.259 -143.416,-30.596 -274.414,-85.893 -382.377,-189.622 -28.5,-27.382 -34.739,-82.623 -75.054,-85.698 -38.443,-2.932 -78.438,22.529 -118.568,32.071 -98.542,23.431 -196.268,51.84 -299.722,44.895 -135.067,-9.068 -255.767,-48.679 -336.604,-164.615 -79.83,-114.493 -105.325,-243.927 -87.382,-381.593 17.856,-136.998 88.309,-246.976 181.613,-344.565 40.076,-43.448 86.536,-78.507 140.614,-102.31 44.322,-19.509 88.136,-42.812 139.461,-35.804 6.072,-1.704 13.787,-6.556 17.863,-4.431 7.644,3.986 3.822,11.178 -1.682,15.743 -6.102,5.062 -13.059,9.101 -19.102,14.224 -91.852,77.873 -185.04,154.504 -246.643,260.975 -44.262,76.311 -89.97,151.927 -95.301,243.62 -5.728,98.522 30.177,180.285 121.591,229.112 68.088,36.367 142.001,38.873 214.5,37.217 117.853,-2.692 232.738,-27.772 344.552,-66.648 57.261,-19.909 58.748,-18.543 96.551,30.807 73.325,95.723 160.149,175.343 268.643,229.663 102.453,51.295 206.694,63.731 317.31,23.555 73.483,-26.689 127.863,-75.466 179.245,-130.38 14.266,-16.172 24.314,-34.646 32.609,-54.594 60.653,-145.854 46.321,-293.751 7.166,-440.226 -72.845,-272.507 -226.615,-498.496 -415.611,-702.799 -34.758,-37.573 -71.113,-73.443 -108.497,-108.242 6.27,1.755 12.748,2.712 19.275,2.712 32.84,0 59.055,-20.686 70.267,-48.999 2.757,1.615 5.52,3.216 8.268,4.854 16.895,-0.173 30.52,7.98 44.027,16.853 159.968,105.098 288.218,241.514 390.378,402.178 81.986,128.939 144.334,267.111 190.235,413.511 C -8.973,-352.032 29.864,-180.807 0,0"
             style="fill:#f40c0c;fill-opacity:1;fill-rule:nonzero;stroke:none"
             id="path74"
             inkscape:connector-curvature="0" /></g><g
           id="g76"
           transform="translate(1055.3696,1886.1934)"><path
             d="m 0,0 c -108.005,110.428 -159.819,330.801 -36.416,443.017 34.518,31.389 74.329,53.116 118.837,63.105 133.325,29.926 265.047,13.31 395.495,-19.682 43.848,-11.089 88.67,-20.735 130.111,-38.063 26.624,-11.132 38.682,-3.327 52.351,15.715 46.153,64.297 99.899,121.866 161.544,171.204 93.456,74.799 196.719,131.631 320.089,127.02 117.465,-4.392 221.715,-44.682 294.836,-143.978 4.603,-6.251 6.877,-14.217 10.239,-21.388 -30.653,6.858 -50.928,31.777 -79.288,44.145 -152.672,66.579 -291.146,30.891 -424.17,-53.041 C 859.998,535.288 794.101,463.503 736.232,385.073 714.454,355.556 695.725,354.785 665.661,365.075 535.1,409.76 400.984,438.295 262.516,435.004 189.282,433.263 116.81,421.881 54.949,374.675 -33.369,307.279 -49.426,216.642 -34.783,114.167 -29.056,74.09 -3.558,40.47 0,0"
             style="fill:#c2c3cc;fill-opacity:1;fill-rule:nonzero;stroke:none"
             id="path78"
             inkscape:connector-curvature="0" /></g><g
           id="g80"
           transform="translate(2638.3584,1141.311)"><path
             d="m 0,0 c -118.868,-86.757 -235.669,-176.43 -356.174,-260.829 -75.559,-52.918 -165.243,-70.209 -255.656,-79.701 -125.658,-13.193 -251.656,-19.721 -378.112,-18.298 -123.193,1.386 -244.102,12.986 -359.46,61.137 -44.655,18.64 -91.944,30.318 -140.452,34.949 -105.054,10.032 -194.225,-23.167 -268.012,-98.659 -51.011,-52.189 -66.257,-52.032 -118.147,0.683 -48.021,48.784 -98.412,94.822 -152.086,137.387 -44.444,35.245 -47.864,63.991 -10.776,105.461 74.329,83.111 153.62,160.589 254.547,212.034 111.626,56.898 230.484,73.56 353.969,63.578 14.852,-1.201 30.177,-5.487 43.796,-11.635 128.776,-58.137 265.397,-77.531 404.826,-81.242 76.88,-2.046 153.865,-0.221 230.802,0.139 28.562,0.134 56.976,-0.373 84.771,-8.037 47.054,-12.974 80.473,-41.364 98.253,-87.189 12.715,-32.771 4.39,-45.817 -31.017,-47.878 -162.261,-9.446 -324.664,-7.769 -487.06,-5.579 -49.366,0.666 -98.714,2.493 -148.077,3.37 -24.101,0.428 -53.298,-25.231 -53.285,-48.931 0.016,-29.274 23.742,-33.381 45.62,-36.783 14.933,-2.321 30.248,-2.972 45.395,-3.007 104.486,-0.243 208.973,-0.128 313.46,-0.128 0,-0.295 0,-0.59 0,-0.885 105.438,0 210.877,0.272 316.314,-0.146 37.197,-0.147 67.358,10.535 92.135,40.922 33.053,40.538 77.905,66.699 126.32,85.049 87.805,33.279 175.912,65.851 265.883,93.015 31.313,9.454 59.981,6.869 84.41,-17.367 C 13.855,19.854 15.487,11.303 0,0 m -1811.178,-577.144 c -44.714,-41.017 -89.841,-81.593 -134.097,-123.098 -11.345,-10.641 -17.849,-7.804 -27.858,1.651 -133.747,126.348 -267.67,252.514 -402.227,377.998 -14.527,13.547 -12.316,20.803 0.699,32.919 38.871,36.183 77.201,72.995 114.557,110.735 12.398,12.526 19.457,11.633 32.153,0.168 137.897,-124.527 276.397,-248.387 414.812,-372.339 4.785,-4.285 10.402,-7.639 16.535,-12.08 -7.125,-7.849 -10.532,-12.247 -14.574,-15.954 M 147.019,52.252 c -6.681,6.68 -14.061,12.808 -21.749,18.311 -103.479,74.074 -215.945,87.513 -335.219,47.229 -76.413,-25.809 -150.665,-57.366 -224.115,-90.662 -13.961,-6.328 -28.296,-11.933 -37.69,3.713 -18.171,30.261 -42.84,55.06 -64.714,82.204 -87.922,58.131 -186.997,60.966 -287.433,59.042 -69.328,-1.328 -138.777,-2.29 -208.039,0.223 -95.143,3.453 -188.497,19.723 -277.113,55.702 -72.389,29.391 -146.245,44.286 -224.459,35.853 -14.681,-1.584 -30.376,-4.902 -44.627,3.616 -25.398,-17.977 -56.166,-12.122 -84.198,-18.235 -185.972,-40.555 -327.721,-148.973 -448.526,-289.544 -42.052,-48.933 -54.346,-52.431 -105.453,-15.638 -14.96,10.77 -29.282,12.014 -45.233,4.707 -16.622,-7.612 -30.274,-19.304 -43.61,-31.566 -59.396,-54.616 -118.901,-109.113 -178.475,-163.534 -39.682,-36.249 -40.948,-68.655 -3.667,-107.181 7.257,-7.498 15.013,-14.524 22.711,-21.58 93.779,-85.966 187.705,-171.773 281.351,-257.884 54.517,-50.131 108.155,-101.224 163.016,-150.971 42.538,-38.573 78.628,-41.355 116.262,-7.42 67.681,61.029 134.472,123.076 200.548,185.841 30.621,29.087 30.098,45.126 3.55,77.186 -21.483,25.942 -24.727,46.016 -7.196,66.4 60.949,70.867 132.463,112.755 232.009,96.12 62.291,-10.41 121.871,-28.626 181.481,-46.984 118.13,-36.38 238.644,-53.346 361.884,-53.42 143.863,-0.087 285.681,19.944 427.344,42.43 63.935,10.149 121.065,32.722 174.664,70.244 125.167,87.622 252.863,171.632 379.434,257.254 30.659,20.74 61.347,41.482 91.269,63.256 35.974,26.179 37.61,53.678 5.993,85.288"
             style="fill:#137abd;fill-opacity:1;fill-rule:nonzero;stroke:none"
             id="path82"
             inkscape:connector-curvature="0" /></g></g></g></g></svg>