<svg id="Capa_1" enable-background="new 0 0 512 512" height="512" viewBox="0 0 512 512" width="512" xmlns="http://www.w3.org/2000/svg"><g><path d="m106 512h300c8.284 0 15-6.716 15-15v-452c0-8.284-6.716-15-15-15h-45v-15c0-8.284-6.716-15-15-15s-15 6.716-15 15v15h-30v-15c0-8.284-6.716-15-15-15s-15 6.716-15 15v15h-30v-15c0-8.284-6.716-15-15-15s-15 6.716-15 15v15h-30v-15c0-8.284-6.716-15-15-15s-15 6.716-15 15v15h-45c-8.284 0-15 6.716-15 15v452c0 8.284 6.716 15 15 15zm15-452h30v15c0 8.284 6.716 15 15 15s15-6.716 15-15v-15h30v15c0 8.284 6.716 15 15 15s15-6.716 15-15v-15h30v15c0 8.284 6.716 15 15 15s15-6.716 15-15v-15h30v15c0 8.284 6.716 15 15 15s15-6.716 15-15v-15h30v422h-270z"/><path d="m224.394 132.893-34.394 34.394-11.894-11.893c-5.857-5.858-15.355-5.858-21.213 0s-5.858 15.355 0 21.213l22.5 22.5c5.857 5.857 15.355 5.858 21.213 0l45-45c5.858-5.858 5.858-15.355 0-21.213-5.857-5.858-15.355-5.858-21.212-.001z"/><path d="m286 211h30c8.284 0 15-6.716 15-15s-6.716-15-15-15h-30c-8.284 0-15 6.716-15 15s6.716 15 15 15z"/><path d="m346 121h-60c-8.284 0-15 6.716-15 15s6.716 15 15 15h60c8.284 0 15-6.716 15-15s-6.716-15-15-15z"/><path d="m224.394 252.893-34.394 34.394-11.894-11.894c-5.857-5.858-15.355-5.858-21.213 0s-5.858 15.355 0 21.213l22.5 22.5c5.857 5.857 15.355 5.858 21.213 0l45-45c5.858-5.858 5.858-15.355 0-21.213-5.857-5.858-15.355-5.858-21.212 0z"/><path d="m286 331h30c8.284 0 15-6.716 15-15s-6.716-15-15-15h-30c-8.284 0-15 6.716-15 15s6.716 15 15 15z"/><path d="m346 241h-60c-8.284 0-15 6.716-15 15s6.716 15 15 15h60c8.284 0 15-6.716 15-15s-6.716-15-15-15z"/><path d="m224.394 372.893-34.394 34.394-11.894-11.894c-5.857-5.858-15.355-5.858-21.213 0s-5.858 15.355 0 21.213l22.5 22.5c5.857 5.857 15.355 5.858 21.213 0l45-45c5.858-5.858 5.858-15.355 0-21.213-5.857-5.858-15.355-5.858-21.212 0z"/><path d="m316 421h-30c-8.284 0-15 6.716-15 15s6.716 15 15 15h30c8.284 0 15-6.716 15-15s-6.716-15-15-15z"/><path d="m346 361h-60c-8.284 0-15 6.716-15 15s6.716 15 15 15h60c8.284 0 15-6.716 15-15s-6.716-15-15-15z"/></g></svg>