<?xml version="1.0" encoding="iso-8859-1"?>
<!-- Generator: Adobe Illustrator 19.0.0, SVG Export Plug-In . SVG Version: 6.00 Build 0)  -->
<svg version="1.1" id="Layer_1" xmlns="http://www.w3.org/2000/svg" xmlns:xlink="http://www.w3.org/1999/xlink" x="0px" y="0px"
	 viewBox="0 0 512 512" style="enable-background:new 0 0 512 512;" xml:space="preserve">
<g>
	<g>
		<path d="M256,0c-41.353,0-76,33.647-76,75c0,41.353,34.647,75,76,75c41.353,0,75-33.647,75-75C331,33.647,297.353,0,256,0z
			 M256,120c-24.814,0-45-20.186-45-45c0-24.814,20.186-45,45-45c24.814,0,45,20.186,45,45C301,99.814,280.814,120,256,120z"/>
	</g>
</g>
<g>
	<g>
		<path d="M494.422,227.578c-5.859-5.859-15.352-5.859-21.211,0s-5.859,15.352,0,21.211C478.88,254.458,482,261.987,482,270
			c0,16.538-13.462,30-30,30h-0.76c-7.614-83.969-79.322-150-165.24-150h-30h-45c-9.229,0-19.647,0.952-30.106,2.988
			C161.03,131.909,133.857,120,105,120c-8.291,0-15,6.709-15,15v67.529c-17.974,19.16-31.113,42.32-38.262,67.471H45
			c-24.814,0-45,20.186-45,45v32c0,24.814,20.186,45,45,45c0.044,0.044,10.093,0,18.018,0.044
			c10.239,20.01,24.536,37.822,41.909,52.192C105,464.29,105,497,105,497c0,8.291,6.709,15,15,15h60c8.291,0,16-6.709,16-15v-15.674
			c4.98,0.454,9.976,0.674,15,0.674h75v15c0,8.291,6.709,15,15,15h61c8.291,0,15-6.709,15-15l0.059-41.733
			c42.231-27.563,69.373-75.282,73.989-125.267H452c33.091,0,60-26.909,60-60C512,253.975,505.76,238.916,494.422,227.578z
			 M119.854,300.292c-8.291,0-15.161-6.855-15.161-15.146c0-8.291,6.869-15.146,15.161-15.146c8.291,0,15.146,6.855,15.146,15.146
			C135,293.437,128.145,300.292,119.854,300.292z M316,240H196c-8.291,0-16-6.709-16-15s7.709-15,16-15h120c8.291,0,15,6.709,15,15
			S324.291,240,316,240z"/>
	</g>
</g>
<g>
</g>
<g>
</g>
<g>
</g>
<g>
</g>
<g>
</g>
<g>
</g>
<g>
</g>
<g>
</g>
<g>
</g>
<g>
</g>
<g>
</g>
<g>
</g>
<g>
</g>
<g>
</g>
<g>
</g>
</svg>
