<svg id="Layer_35" enable-background="new 0 0 64 64" height="512" viewBox="0 0 64 64" width="512" xmlns="http://www.w3.org/2000/svg"><path d="m7 34.92v23.58c0 1.379 1.121 2.5 2.5 2.5s2.5-1.121 2.5-2.5v-19.5h2v19.5c0 1.379 1.121 2.5 2.5 2.5s2.5-1.121 2.5-2.5v-23.5h-11c-.34 0-.672-.033-1-.08z"/><path d="m6 22h2v5c0 .551.448 1 1 1h10v-6h2v2.816c.603-.487 1.266-.894 1.981-1.192-.18-3.351-2.721-6.078-5.989-6.545-.043 2.168-1.813 3.921-3.992 3.921s-3.949-1.753-3.992-3.921c-3.39.484-6.008 3.399-6.008 6.921v2h3z"/><path d="m11 17c0 1.103.897 2 2 2s2-.897 2-2h-2z"/><path d="m19.5 30h-10.5c-1.302 0-2.402-.839-2.816-2h-3.184c0 2.757 2.243 5 5 5h11.5c.827 0 1.5-.673 1.5-1.5s-.673-1.5-1.5-1.5z"/><circle cx="13" cy="9" r="6"/><circle cx="51" cy="9" r="6"/><path d="m48.869 17 2.131 3.197 2.132-3.197h-2.132z"/><path d="m55.436 17.149-4.436 6.654-4.435-6.653c-3.054.639-5.374 3.276-5.546 6.474.715.298 1.378.705 1.981 1.192v-2.816h2v6h10c.552 0 1-.449 1-1v-5h2v4h3v-2c0-3.368-2.391-6.186-5.564-6.851zm-3.436 9.851h-2v-2h2z"/><path d="m45 35v23.5c0 1.379 1.121 2.5 2.5 2.5s2.5-1.121 2.5-2.5v-19.5h2v19.5c0 1.379 1.121 2.5 2.5 2.5s2.5-1.121 2.5-2.5v-23.58c-.328.047-.66.08-1 .08z"/><path d="m55 30h-10.5c-.827 0-1.5.673-1.5 1.5s.673 1.5 1.5 1.5h11.5c2.757 0 5-2.243 5-5h-3.184c-.414 1.161-1.514 2-2.816 2z"/><path d="m41 31.5c0-1.391.822-2.585 2-3.149v-.598c-1.116-1.7-3.03-2.753-5.071-2.753-1.621 0-3.146.631-4.293 1.778l-1.636 1.636-1.636-1.636c-1.146-1.147-2.672-1.778-4.293-1.778-2.072 0-3.945 1.029-5.071 2.752v.599c1.178.564 2 1.758 2 3.149s-.822 2.585-2 3.149v.382c.322.493.699.943 1.149 1.324l9.851 8.335 9.851-8.336c.45-.38.828-.831 1.149-1.324v-.382c-1.178-.563-2-1.757-2-3.148zm-9 3.5c1.654 0 3 1.346 3 3 0 1.302-.839 2.402-2 2.816v2.184h-2v-2.184c-1.161-.414-2-1.514-2-2.816h2c0 .552.448 1 1 1s1-.448 1-1-.448-1-1-1c-1.654 0-3-1.346-3-3 0-1.302.839-2.402 2-2.816v-2.184h2v2.184c1.161.414 2 1.514 2 2.816h-2c0-.552-.448-1-1-1s-1 .448-1 1 .448 1 1 1z"/></svg>