<svg id="Layer_35" enable-background="new 0 0 64 64" height="512" viewBox="0 0 64 64" width="512" xmlns="http://www.w3.org/2000/svg"><path d="m11 40.09v-1.09c0-1.654 1.346-3 3-3h17v4.09c.326-.055.659-.09 1-.09s.674.035 1 .09v-4.09h17c1.654 0 3 1.346 3 3v1.09c.326-.055.659-.09 1-.09s.674.035 1 .09v-1.09c0-2.757-2.243-5-5-5h-17v-3.379h-2v3.379h-17c-2.757 0-5 2.243-5 5v1.09c.326-.055.659-.09 1-.09s.674.035 1 .09z"/><path d="m24.121 23c.3 0 .581-.117.793-.328l.758-.758c.211-.212.328-.493.328-.793 0-.618-.503-1.121-1.121-1.121-.3 0-.581.117-.793.328l-.758.758c-.211.212-.328.493-.328.793 0 .618.503 1.121 1.121 1.121z"/><path d="m27.121 26c.3 0 .581-.117.793-.328l.758-.758c.211-.212.328-.493.328-.793 0-.618-.503-1.121-1.121-1.121-.3 0-.581.117-.793.328l-.758.758c-.211.212-.328.493-.328.793 0 .618.503 1.121 1.121 1.121z"/><path d="m27 11.586c0 .228.186.414.414.414h3.757c.267 0 .519-.104.708-.293l1.707-1.707h1.585c1.557 0 3.021-.606 4.122-1.707l1.414 1.414c-.268.268-.557.507-.856.73l4.598 4.598c1.001-1.301 1.55-2.882 1.55-4.55.001-4.127-3.357-7.485-7.484-7.485-2 0-3.879.779-5.293 2.192l-6.101 6.101c-.077.077-.121.184-.121.293z"/><path d="m21.879 17c-.3 0-.581.117-.793.328l-.758.758c-.211.212-.328.493-.328.793 0 .618.503 1.121 1.121 1.121.3 0 .581-.117.793-.328l.758-.758c.211-.212.328-.493.328-.793 0-.618-.503-1.121-1.121-1.121z"/><path d="m30.121 29c.3 0 .581-.117.793-.328l.758-.758c.211-.212.328-.493.328-.793 0-.618-.503-1.121-1.121-1.121-.3 0-.581.117-.793.328l-.758.758c-.211.212-.328.493-.328.793 0 .618.503 1.121 1.121 1.121z"/><path d="m21.879 15c1.684 0 3.051 1.342 3.11 3.011 1.632.058 2.942 1.368 3 3 1.632.058 2.942 1.368 3 3 1.669.059 3.011 1.427 3.011 3.11 0 .425-.087.837-.248 1.217l.334.334c.212.211.493.328.793.328.618 0 1.121-.503 1.121-1.121 0-.3-.117-.581-.328-.793l-4.379-4.379 1.414-1.414 4.379 4.379c.212.211.493.328.793.328.618 0 1.121-.503 1.121-1.121 0-.3-.117-.581-.328-.793l-4.379-4.379 1.414-1.414 4.379 4.379c.212.211.493.328.793.328.618 0 1.121-.503 1.121-1.121 0-.3-.117-.581-.328-.793l-4.379-4.379 1.414-1.414 4.379 4.379c.212.211.493.328.793.328.618 0 1.121-.503 1.121-1.121 0-.3-.117-.581-.328-.793l-6.632-6.632c-.902.355-1.87.546-2.869.546h-.757l-1.121 1.121c-.566.567-1.32.879-2.122.879h-3.757c-1.331 0-2.414-1.083-2.414-2.414 0-.645.251-1.251.707-1.707l4.87-4.87c-1.39-1.293-3.184-2.009-5.092-2.009-4.127 0-7.485 3.358-7.485 7.485 0 1.924.727 3.732 2.041 5.126.531-.391 1.165-.611 1.838-.611z"/><path d="m32 52c-3.86 0-7 3.14-7 7v2h2v-4h2v4h6v-4h2v4h2v-2c0-3.86-3.14-7-7-7z"/><circle cx="32" cy="46" r="4"/><path d="m54 52c-3.86 0-7 3.14-7 7v2h2v-4h2v4h6v-4h2v4h2v-2c0-3.86-3.14-7-7-7z"/><circle cx="54" cy="46" r="4"/><circle cx="10" cy="46" r="4"/><path d="m10 52c-3.86 0-7 3.14-7 7v2h2v-4h2v4h6v-4h2v4h2v-2c0-3.86-3.14-7-7-7z"/><path d="m38 38h2v2h-2z"/><path d="m42 38h2v2h-2z"/><path d="m46 38h2v2h-2z"/><path d="m16 38h2v2h-2z"/><path d="m20 38h2v2h-2z"/><path d="m24 38h2v2h-2z"/></svg>