<svg id="Capa_1" enable-background="new 0 0 512 512" height="512" viewBox="0 0 512 512" width="512" xmlns="http://www.w3.org/2000/svg"><g><path d="m427.865 429.733c22.533-2.434 40.135-21.564 40.135-44.733 0-19.555-12.541-36.228-30-42.42v-41.53c0-8.284-6.716-15-15-15h-151.5v-14.05h14.803c8.284 0 15-6.716 15-15v-25.283c5.177-2.48 10.133-5.379 14.841-8.682l21.994 12.698c7.167 4.14 16.349 1.684 20.49-5.49l30.303-52.486c4.142-7.175 1.684-16.349-5.49-20.49l-22.686-13.098c.365-5.327.33-10.739-.149-16.252l22.835-13.184c7.174-4.142 9.632-13.315 5.49-20.49l-30.303-52.486c-4.146-7.183-13.332-9.625-20.49-5.49l-23.579 13.613c-4.234-2.855-8.659-5.392-13.256-7.595v-27.285c0-8.284-6.716-15-15-15h-60.606c-8.284 0-15 6.716-15 15v27.285c-4.596 2.203-9.022 4.739-13.256 7.595l-23.579-13.613c-7.17-4.139-16.349-1.683-20.49 5.49l-30.303 52.486c-4.142 7.175-1.684 16.349 5.49 20.49l22.835 13.184c-.463 5.33-.526 10.742-.149 16.252l-22.686 13.098c-7.174 4.142-9.632 13.315-5.49 20.49l30.303 52.486c4.146 7.183 13.332 9.624 20.49 5.49l21.994-12.698c4.708 3.303 9.664 6.201 14.841 8.682v25.283c0 8.284 6.716 15 15 15h15.803v14.05h-151.5c-8.284 0-15 6.716-15 15v41.53c-17.459 6.192-30 22.865-30 42.42 0 23.04 17.408 42.08 39.76 44.685-35.014 2.443-62.76 31.69-62.76 67.315 0 8.284 6.716 15 15 15h105c8.284 0 15-6.716 15-15 0-35.412-27.416-64.521-62.135-67.267 22.533-2.434 40.135-21.564 40.135-44.733 0-19.555-12.541-36.228-30-42.42v-26.53h136.5v26.53c-17.459 6.192-30 22.865-30 42.42 0 23.04 17.408 42.08 39.76 44.685-35.014 2.443-62.76 31.69-62.76 67.315 0 8.284 6.716 15 15 15h105c8.284 0 15-6.716 15-15 0-35.412-27.416-64.521-62.135-67.267 22.533-2.434 40.135-21.564 40.135-44.733 0-19.555-12.541-36.228-30-42.42v-26.53h136.5v26.53c-17.459 6.192-30 22.865-30 42.42 0 23.04 17.408 42.08 39.76 44.685-35.014 2.443-62.76 31.69-62.76 67.315 0 8.284 6.716 15 15 15h105c8.284 0 15-6.716 15-15 0-35.412-27.416-64.521-62.135-67.267zm-216.865-292.733c0-24.813 20.187-45 45-45s45 20.187 45 45-20.187 45-45 45-45-20.187-45-45z"/><circle cx="256" cy="137" r="15"/></g></svg>