<?xml version="1.0" encoding="utf-8"?>
<!-- Generator: Adobe Illustrator 24.0.2, SVG Export Plug-In . SVG Version: 6.00 Build 0)  -->
<svg version="1.1" id="Layer_1" xmlns="http://www.w3.org/2000/svg" xmlns:xlink="http://www.w3.org/1999/xlink" x="0px" y="0px"
	 viewBox="0 0 512 512" enable-background="new 0 0 512 512" xml:space="preserve">
<g>
	<path fill="#1C4670" d="M155,13.4c0,1.2-0.7,2.2-1.6,2.2l-8.6-0.1c-0.9,0-1.6-1-1.6-2.2l0.1-7c0-1.2,0.7-2.2,1.6-2.2l8.6,0.1
		c0.9,0,1.6,1,1.6,2.2L155,13.4z"/>
	<path fill="#1C4670" d="M154.4,81.1c0-1.2-0.7-2.2-1.6-2.2l-8.6-0.1c-0.9,0-1.6,1-1.6,2.2l0,6.9c0,1.2,0.7,2.2,1.6,2.2l8.7,0.1
		c0.9,0,1.6-1,1.6-2.2L154.4,81.1z"/>
	<path fill="#1C4670" d="M137.2,14.8c0.6,1.1,0.5,2.3-0.3,2.7l-7.5,4.3c-0.8,0.4-1.9-0.1-2.5-1.1l-3.4-6.1c-0.6-1.1-0.5-2.3,0.3-2.7
		l7.5-4.2c0.8-0.5,1.9,0.1,2.5,1.1L137.2,14.8z"/>
	<path fill="#1C4670" d="M170.6,73.8c-0.6-1.1-1.7-1.6-2.5-1.1l-7.5,4.2c-0.8,0.5-0.9,1.7-0.3,2.7l3.4,6c0.6,1,1.7,1.6,2.5,1.1
		l7.5-4.3c0.8-0.4,0.9-1.7,0.3-2.7L170.6,73.8z"/>
	<path fill="#1C4670" d="M122.6,24.9c1.1,0.6,1.5,1.7,1.1,2.5l-4.4,7.4c-0.5,0.8-1.7,0.9-2.8,0.3l-6-3.5c-1-0.6-1.5-1.7-1-2.5
		l4.4-7.4c0.5-0.8,1.7-0.9,2.7-0.3L122.6,24.9z"/>
	<path fill="#1C4670" d="M181,59.3c-1-0.6-2.3-0.5-2.7,0.3l-4.4,7.5c-0.5,0.8,0,1.9,1.1,2.5l6,3.5c1,0.6,2.3,0.5,2.7-0.3l4.4-7.5
		c0.5-0.8,0-1.9-1.1-2.5L181,59.3z"/>
	<path fill="#1C4670" d="M114.9,41c1.2,0,2.2,0.7,2.2,1.6l-0.1,8.6c0,0.9-1,1.6-2.2,1.6l-7,0c-1.2,0-2.2-0.8-2.2-1.7l0.1-8.6
		c0-0.9,1-1.6,2.2-1.6L114.9,41z"/>
	<path fill="#1C4670" d="M182.7,41.5c-1.2,0-2.2,0.7-2.3,1.6l-0.1,8.6c0,0.9,1,1.6,2.2,1.6l7,0.1c1.2,0,2.2-0.7,2.2-1.6l0.1-8.6
		c0-0.9-1-1.6-2.2-1.7L182.7,41.5z"/>
	<path fill="#1C4670" d="M116.4,58.7c1-0.6,2.2-0.4,2.7,0.3l4.3,7.5c0.5,0.8,0,1.9-1.1,2.5l-6.1,3.4c-1,0.6-2.3,0.5-2.7-0.3
		l-4.3-7.5c-0.4-0.8,0.1-1.9,1.1-2.5L116.4,58.7z"/>
	<path fill="#1C4670" d="M175.3,25.3c-1.1,0.6-1.5,1.7-1.1,2.5l4.3,7.5c0.4,0.8,1.7,0.9,2.7,0.3l6.1-3.4c1.1-0.6,1.6-1.7,1.1-2.5
		l-4.3-7.5c-0.4-0.8-1.6-0.9-2.7-0.3L175.3,25.3z"/>
	<path fill="#1C4670" d="M126.5,73.4c0.6-1,1.7-1.5,2.5-1.1l7.5,4.4c0.8,0.5,0.9,1.7,0.3,2.7l-3.5,6c-0.6,1.1-1.7,1.5-2.5,1.1
		l-7.4-4.4c-0.8-0.5-0.9-1.7-0.3-2.7L126.5,73.4z"/>
	<path fill="#1C4670" d="M160.8,15c-0.6,1-0.5,2.3,0.3,2.7l7.5,4.4c0.8,0.5,1.9,0,2.5-1.1l3.5-6c0.6-1,0.5-2.3-0.3-2.7l-7.4-4.4
		c-0.8-0.5-1.9,0-2.5,1.1L160.8,15z"/>
	<path fill="#1C4670" d="M149,10.8c-20.1-0.2-36.5,16-36.7,36.1c-0.2,20.1,16,36.5,36.1,36.7c20.1,0.2,36.5-16,36.7-36.1
		C185.3,27.4,169.1,11,149,10.8z M148.6,71.2c-13.2-0.1-23.9-10.9-23.8-24.1c0.1-13.2,10.9-23.9,24.1-23.8
		c13.2,0.1,23.9,10.9,23.8,24.2C172.6,60.6,161.8,71.3,148.6,71.2z"/>
</g>
<g>
	<path fill="#1C4670" d="M405.4,228.6c0,0.9-0.5,1.6-1.2,1.6l-6.2-0.1c-0.7,0-1.2-0.7-1.2-1.6l0-5c0-0.9,0.5-1.6,1.2-1.6l6.2,0.1
		c0.7,0,1.2,0.7,1.2,1.6L405.4,228.6z"/>
	<path fill="#1C4670" d="M405,277.6c0-0.9-0.5-1.6-1.2-1.6l-6.2-0.1c-0.6,0-1.2,0.7-1.2,1.6l0,5c0,0.9,0.5,1.6,1.2,1.6l6.3,0
		c0.6,0,1.2-0.7,1.2-1.6L405,277.6z"/>
	<path fill="#1C4670" d="M392.6,229.7c0.5,0.8,0.3,1.6-0.2,2l-5.4,3.1c-0.6,0.3-1.4,0-1.8-0.8l-2.5-4.4c-0.4-0.8-0.3-1.6,0.2-2
		l5.4-3.1c0.6-0.3,1.4,0,1.8,0.8L392.6,229.7z"/>
	<path fill="#1C4670" d="M416.7,272.3c-0.4-0.8-1.2-1.1-1.8-0.8l-5.4,3.1c-0.6,0.3-0.7,1.2-0.2,2l2.5,4.4c0.4,0.8,1.3,1.1,1.8,0.8
		l5.4-3.1c0.6-0.3,0.7-1.2,0.2-2L416.7,272.3z"/>
	<path fill="#1C4670" d="M382,237c0.8,0.4,1.1,1.3,0.8,1.8l-3.1,5.4c-0.4,0.6-1.2,0.7-2,0.2l-4.3-2.5c-0.8-0.4-1.1-1.3-0.8-1.8
		l3.1-5.4c0.3-0.6,1.2-0.7,2-0.2L382,237z"/>
	<path fill="#1C4670" d="M424.2,261.8c-0.7-0.5-1.6-0.4-2,0.2l-3.2,5.4c-0.4,0.6,0,1.4,0.8,1.8l4.3,2.5c0.8,0.4,1.7,0.4,2-0.2
		l3.1-5.4c0.3-0.6,0-1.4-0.8-1.8L424.2,261.8z"/>
	<path fill="#1C4670" d="M376.5,248.6c0.9,0,1.6,0.5,1.6,1.2l0,6.2c0,0.7-0.7,1.2-1.6,1.2l-5,0c-0.9,0-1.6-0.5-1.6-1.2l0-6.2
		c0-0.7,0.7-1.2,1.6-1.2L376.5,248.6z"/>
	<path fill="#1C4670" d="M425.5,249c-0.9,0-1.6,0.5-1.6,1.2l-0.1,6.2c0,0.7,0.7,1.2,1.6,1.2l5,0c0.9,0,1.6-0.5,1.6-1.2l0-6.2
		c0-0.7-0.7-1.2-1.6-1.2L425.5,249z"/>
	<path fill="#1C4670" d="M377.5,261.4c0.7-0.4,1.6-0.3,1.9,0.2l3.1,5.4c0.3,0.6,0,1.4-0.8,1.8l-4.4,2.5c-0.8,0.4-1.6,0.3-2-0.2
		l-3.1-5.4c-0.3-0.6,0-1.4,0.8-1.8L377.5,261.4z"/>
	<path fill="#1C4670" d="M420.1,237.3c-0.8,0.4-1.1,1.2-0.8,1.8l3.1,5.4c0.3,0.6,1.2,0.7,1.9,0.2l4.4-2.5c0.8-0.4,1.1-1.2,0.8-1.8
		l-3.1-5.4c-0.3-0.6-1.2-0.7-2-0.2L420.1,237.3z"/>
	<path fill="#1C4670" d="M384.8,272c0.4-0.8,1.3-1.1,1.8-0.8l5.4,3.2c0.6,0.3,0.7,1.2,0.2,2l-2.5,4.3c-0.5,0.8-1.3,1.1-1.8,0.8
		l-5.4-3.2c-0.6-0.3-0.7-1.2-0.2-2L384.8,272z"/>
	<path fill="#1C4670" d="M409.6,229.8c-0.4,0.8-0.4,1.6,0.2,2l5.4,3.2c0.6,0.3,1.4,0,1.8-0.8l2.5-4.3c0.4-0.8,0.4-1.7-0.2-2
		l-5.4-3.1c-0.6-0.3-1.4,0-1.8,0.8L409.6,229.8z"/>
	<path fill="#1C4670" d="M401.1,226.8c-14.5-0.1-26.4,11.6-26.5,26.1c-0.1,14.5,11.6,26.4,26.1,26.5c14.5,0.1,26.4-11.6,26.5-26.1
		C427.4,238.8,415.7,226.9,401.1,226.8z M400.8,270.4c-9.6-0.1-17.3-7.9-17.2-17.4c0.1-9.5,7.9-17.2,17.4-17.2
		c9.6,0.1,17.3,7.9,17.2,17.5C418.2,262.8,410.4,270.5,400.8,270.4z"/>
</g>
<g>
	<path fill="#1C4670" d="M139.6,296.1c0,0.8-0.4,1.3-1,1.3l-5.2,0c-0.6,0-1-0.6-1-1.3l0-4.2c0-0.7,0.4-1.3,1-1.3l5.1,0
		c0.6,0,1,0.6,1,1.3L139.6,296.1z"/>
	<path fill="#1C4670" d="M139.3,336.6c0-0.7-0.4-1.3-1-1.3l-5.2,0c-0.5,0-1,0.6-1,1.3l0,4.2c0,0.7,0.4,1.3,1,1.3l5.2,0
		c0.5,0,1-0.6,1-1.3L139.3,336.6z"/>
	<path fill="#1C4670" d="M129,297c0.4,0.6,0.3,1.4-0.2,1.6l-4.5,2.5c-0.5,0.3-1.1,0-1.5-0.7l-2-3.6c-0.4-0.6-0.3-1.4,0.2-1.6
		l4.5-2.5c0.5-0.3,1.2,0,1.5,0.7L129,297z"/>
	<path fill="#1C4670" d="M148.9,332.2c-0.3-0.6-1-0.9-1.5-0.7l-4.5,2.5c-0.5,0.3-0.6,1-0.2,1.6l2,3.6c0.4,0.6,1,0.9,1.5,0.7l4.5-2.5
		c0.5-0.3,0.6-1,0.2-1.6L148.9,332.2z"/>
	<path fill="#1C4670" d="M120.2,303c0.6,0.4,0.9,1.1,0.6,1.5l-2.6,4.4c-0.3,0.5-1,0.6-1.7,0.2l-3.6-2.1c-0.6-0.4-0.9-1-0.6-1.5
		l2.6-4.4c0.3-0.5,1-0.5,1.6-0.2L120.2,303z"/>
	<path fill="#1C4670" d="M155.1,323.5c-0.6-0.4-1.4-0.3-1.6,0.2l-2.6,4.5c-0.3,0.5,0,1.1,0.6,1.5l3.6,2.1c0.6,0.4,1.4,0.3,1.6-0.2
		l2.6-4.4c0.3-0.5,0-1.1-0.6-1.5L155.1,323.5z"/>
	<path fill="#1C4670" d="M115.7,312.6c0.7,0,1.3,0.4,1.3,1l0,5.2c0,0.5-0.6,1-1.3,1l-4.2,0c-0.7,0-1.3-0.4-1.3-1l0-5.1
		c0-0.5,0.6-1,1.3-1L115.7,312.6z"/>
	<path fill="#1C4670" d="M156.1,313c-0.7,0-1.3,0.4-1.3,1l0,5.2c0,0.5,0.6,1,1.3,1l4.2,0c0.7,0,1.3-0.4,1.3-1l0-5.1
		c0-0.5-0.6-1-1.3-1L156.1,313z"/>
	<path fill="#1C4670" d="M116.5,323.2c0.6-0.4,1.3-0.3,1.6,0.2l2.5,4.5c0.3,0.5,0,1.1-0.7,1.5l-3.6,2c-0.6,0.4-1.4,0.3-1.6-0.2
		l-2.5-4.5c-0.3-0.5,0-1.1,0.7-1.5L116.5,323.2z"/>
	<path fill="#1C4670" d="M151.7,303.3c-0.6,0.4-0.9,1-0.7,1.5l2.6,4.5c0.3,0.5,1,0.6,1.6,0.2l3.6-2c0.6-0.4,0.9-1,0.7-1.5l-2.5-4.5
		c-0.3-0.5-1-0.6-1.6-0.2L151.7,303.3z"/>
	<path fill="#1C4670" d="M122.5,332c0.4-0.6,1-0.9,1.5-0.6l4.5,2.6c0.5,0.3,0.5,1,0.2,1.6l-2.1,3.6c-0.4,0.6-1,0.9-1.5,0.6l-4.4-2.6
		c-0.5-0.3-0.5-1-0.2-1.6L122.5,332z"/>
	<path fill="#1C4670" d="M143.1,297.1c-0.3,0.6-0.3,1.3,0.2,1.6l4.5,2.6c0.5,0.3,1.1,0,1.5-0.6l2.1-3.6c0.4-0.6,0.3-1.4-0.2-1.6
		l-4.4-2.6c-0.5-0.3-1.1,0-1.5,0.6L143.1,297.1z"/>
	<path fill="#1C4670" d="M136,294.6c-12-0.1-21.8,9.6-21.9,21.6c-0.1,12,9.5,21.8,21.6,21.9c12,0.1,21.8-9.6,21.9-21.6
		C157.7,304.5,148,294.7,136,294.6z M135.8,330.7c-7.9-0.1-14.3-6.5-14.2-14.4c0.1-7.9,6.5-14.2,14.4-14.2
		c7.9,0.1,14.3,6.5,14.2,14.4C150.1,324.4,143.7,330.7,135.8,330.7z"/>
</g>
<g>
	<path fill="#1C4670" d="M237,29.3c0,0.9-0.5,1.6-1.2,1.6l-6.2,0c-0.7,0-1.2-0.7-1.2-1.6l0-5c0-0.9,0.5-1.6,1.2-1.6l6.2,0
		c0.7,0,1.2,0.7,1.2,1.6L237,29.3z"/>
	<path fill="#1C4670" d="M236.6,78.2c0-0.9-0.5-1.6-1.2-1.6l-6.2,0c-0.6,0-1.2,0.7-1.2,1.6l0,5c0,0.9,0.5,1.6,1.2,1.6l6.3,0
		c0.7,0,1.2-0.7,1.2-1.6L236.6,78.2z"/>
	<path fill="#1C4670" d="M224.2,30.3c0.5,0.8,0.4,1.6-0.2,2l-5.4,3.1c-0.5,0.3-1.4,0-1.8-0.8l-2.5-4.4c-0.4-0.8-0.3-1.6,0.2-2
		l5.4-3.1c0.6-0.3,1.4,0,1.8,0.8L224.2,30.3z"/>
	<path fill="#1C4670" d="M248.3,72.9c-0.4-0.8-1.2-1.1-1.8-0.8l-5.4,3.1c-0.6,0.3-0.7,1.2-0.2,2l2.5,4.4c0.4,0.8,1.3,1.1,1.8,0.8
		l5.4-3.1c0.6-0.3,0.7-1.2,0.2-2L248.3,72.9z"/>
	<path fill="#1C4670" d="M213.6,37.6c0.8,0.4,1.1,1.3,0.8,1.8l-3.1,5.4c-0.3,0.6-1.2,0.7-2,0.2l-4.3-2.5c-0.8-0.4-1.1-1.3-0.8-1.8
		l3.2-5.4c0.3-0.6,1.2-0.7,2-0.2L213.6,37.6z"/>
	<path fill="#1C4670" d="M255.8,62.4c-0.8-0.4-1.6-0.4-2,0.2l-3.2,5.4c-0.4,0.6,0,1.4,0.8,1.8l4.3,2.5c0.8,0.5,1.7,0.4,2-0.2
		l3.2-5.4c0.3-0.6,0-1.4-0.8-1.8L255.8,62.4z"/>
	<path fill="#1C4670" d="M208.1,49.2c0.9,0,1.6,0.5,1.6,1.2l0,6.2c0,0.6-0.7,1.2-1.6,1.2l-5,0c-0.9,0-1.6-0.5-1.6-1.2l0-6.2
		c0-0.7,0.7-1.2,1.6-1.2L208.1,49.2z"/>
	<path fill="#1C4670" d="M257.1,49.6c-0.9,0-1.6,0.5-1.6,1.2l-0.1,6.2c0,0.6,0.7,1.2,1.6,1.2l5,0c0.9,0,1.6-0.5,1.6-1.2l0-6.2
		c0-0.7-0.7-1.2-1.6-1.2L257.1,49.6z"/>
	<path fill="#1C4670" d="M209.1,62.1c0.7-0.4,1.6-0.3,1.9,0.2l3.1,5.4c0.3,0.6,0,1.4-0.8,1.8L209,72c-0.8,0.4-1.7,0.3-2-0.2
		l-3.1-5.4c-0.3-0.6,0-1.4,0.8-1.8L209.1,62.1z"/>
	<path fill="#1C4670" d="M251.7,37.9c-0.8,0.4-1.1,1.2-0.8,1.8l3.1,5.4c0.3,0.6,1.2,0.7,2,0.2l4.4-2.5c0.8-0.4,1.1-1.2,0.8-1.8
		l-3.1-5.4c-0.3-0.6-1.2-0.7-2-0.2L251.7,37.9z"/>
	<path fill="#1C4670" d="M216.4,72.6c0.5-0.8,1.3-1.1,1.8-0.8l5.4,3.2c0.6,0.4,0.7,1.2,0.2,2l-2.5,4.3c-0.5,0.8-1.3,1.1-1.8,0.8
		l-5.4-3.2c-0.6-0.3-0.7-1.2-0.2-2L216.4,72.6z"/>
	<path fill="#1C4670" d="M241.2,30.5c-0.4,0.8-0.4,1.6,0.2,2l5.4,3.2c0.6,0.3,1.4,0,1.8-0.8l2.5-4.3c0.4-0.8,0.4-1.7-0.2-2l-5.4-3.2
		c-0.6-0.3-1.4,0-1.8,0.8L241.2,30.5z"/>
	<path fill="#1C4670" d="M232.7,27.4c-14.5-0.1-26.4,11.6-26.5,26.1C206.1,68,217.8,79.9,232.3,80c14.5,0.1,26.4-11.6,26.5-26.1
		C259,39.4,247.3,27.5,232.7,27.4z M232.4,71c-9.6-0.1-17.3-7.9-17.2-17.4c0.1-9.6,7.9-17.2,17.4-17.2c9.6,0.1,17.3,7.9,17.2,17.5
		C249.8,63.4,242,71.1,232.4,71z"/>
</g>
<g>
	<path fill="#1C4670" d="M254.2,434.5c-1.5,0-2.6-1.3-2.6-3v-40c0-8.2-5.9-14.8-13.1-14.8H188c-10.1,0-18.4-6.6-18.4-14.8
		c0-8.2,8.2-14.8,18.4-14.8h133.6c7.7,0,13.1-4.3,13.1-8.2c0-3.9-5.4-8.2-13.1-8.2h-73.9c-10.1,0-18.4-7.5-18.4-16.7
		c0-9.2,8.3-16.7,18.4-16.7h69.1c7.1,0,13.1-5.1,13.1-11.1c0-6-6-11.1-13.1-11.1H186.1c-10.1,0-18.4-8.6-18.4-19.2v-16.3
		c0-1.6,1.2-3,2.6-3s2.6,1.3,2.6,3v16.3c0,7.3,5.9,13.3,13.1,13.3h130.7c10.1,0,18.4,7.6,18.4,17c0,9.4-8.2,17-18.4,17h-69.1
		c-7.1,0-13.1,4.9-13.1,10.7c0,5.8,6,10.8,13.1,10.8h73.9c10.3,0,18.4,6.2,18.4,14.1c0,7.9-8.1,14.1-18.4,14.1H188
		c-7.1,0-13.1,4.1-13.1,8.9c0,4.8,6,8.9,13.1,8.9h50.5c10.1,0,18.4,9.3,18.4,20.7v40C256.9,433.2,255.7,434.5,254.2,434.5z"/>
</g>
<path fill="#768296" d="M237.2,315.7c-1.6,0-3.2-0.2-4.6-0.6c-1.4,0.4-3,0.6-4.6,0.6H74.6c-7.7,0-13.9-6.2-13.9-13.9V65.5
	c0-7.7,6.2-13.9,13.9-13.9h144.1c5.2,0,10,1.7,13.9,4.6c3.9-2.9,8.7-4.6,13.9-4.6h144c7.7,0,13.9,6.2,13.9,13.9v236.3
	c0,7.7-6.2,13.9-13.9,13.9H237.2z"/>
<linearGradient id="SVGID_1_" gradientUnits="userSpaceOnUse" x1="232.5367" y1="282.3292" x2="232.5367" y2="36.7141">
	<stop  offset="0" style="stop-color:#CDEFFA"/>
	<stop  offset="1" style="stop-color:#FAFAFA"/>
</linearGradient>
<path fill="url(#SVGID_1_)" d="M390.5,60.8H265.7h-16.6h-2.7c-7.6,0-13.9,6.3-13.9,13.9c0-7.7-6.3-13.9-13.9-13.9h-2.7h-16.6H74.6
	c-2.5,0-4.6,2.1-4.6,4.6v236.3c0,2.5,2.1,4.6,4.6,4.6h9.3h2.7h16.6h96.1h16.6h2.7h9.3c2.5,0,4.6-1.1,4.6-2.5c0,1.4,2.1,2.5,4.6,2.5
	h9.3h2.7h16.6h96.2h16.6h2.7h9.3c2.5,0,4.6-2.1,4.6-4.6V65.5C395.1,62.9,393,60.8,390.5,60.8z"/>
<path fill="#FFFFFF" d="M232.5,175.7v-101c0-7.7-6.3-13.9-13.9-13.9h-2.7h-16.6H74.6c-2.5,0-4.6,2.1-4.6,4.6v236.3
	c0,2.5,2.1,4.6,4.6,4.6h9.3h2.7h16.6h96.1h16.6h2.7h9.3c2.5,0,4.6-1.1,4.6-2.5V175.7C232.5,175.7,232.5,175.7,232.5,175.7z"/>
<path fill="#FFFFFF" d="M232.5,175.7v-101c0-7.7,6.3-13.9,13.9-13.9h2.7h16.6h124.7c2.5,0,4.6,2.1,4.6,4.6v236.3
	c0,2.5-2.1,4.6-4.6,4.6h-9.3h-2.7h-16.6h-96.2h-16.6h-2.7h-9.3c-2.5,0-4.6-1.1-4.6-2.5V175.7C232.5,175.7,232.5,175.7,232.5,175.7z"
	/>
<rect x="83.5" y="76.7" fill="#FFA229" width="131.3" height="24.1"/>
<rect x="83.5" y="109.1" fill="#AEBFCE" width="131.3" height="8.5"/>
<rect x="83.5" y="141.6" fill="#AEBFCE" width="131.3" height="8.5"/>
<rect x="83.5" y="157.8" fill="#AEBFCE" width="131.3" height="8.5"/>
<rect x="83.5" y="174" fill="#AEBFCE" width="131.3" height="8.5"/>
<rect x="83.5" y="201.8" fill="#AEBFCE" width="131.3" height="8.5"/>
<rect x="83.5" y="218" fill="#AEBFCE" width="131.3" height="8.5"/>
<rect x="83.5" y="250.5" fill="#AEBFCE" width="131.3" height="8.5"/>
<rect x="83.5" y="266.7" fill="#AEBFCE" width="131.3" height="8.5"/>
<rect x="250.3" y="76.7" fill="#AEBFCE" width="131.3" height="8.5"/>
<rect x="250.3" y="92.9" fill="#AEBFCE" width="131.3" height="8.5"/>
<rect x="250.3" y="120.7" fill="#AEBFCE" width="131.3" height="8.5"/>
<rect x="250.3" y="136.9" fill="#AEBFCE" width="131.3" height="8.5"/>
<rect x="250.3" y="153.1" fill="#AEBFCE" width="131.3" height="8.5"/>
<rect x="250.3" y="201.8" fill="#AEBFCE" width="131.3" height="8.5"/>
<rect x="250.3" y="218" fill="#AEBFCE" width="131.3" height="8.5"/>
<rect x="250.3" y="234.3" fill="#AEBFCE" width="131.3" height="8.5"/>
<rect x="250.3" y="266.7" fill="#AEBFCE" width="131.3" height="8.5"/>
<polygon fill="#77D0DE" points="289.4,51.6 272.6,51.6 272.6,238.5 289.4,229 306.3,238.5 306.3,51.6 "/>
<path fill="#768296" d="M290.3,469.7c0,20-16.2,36.1-36.1,36.1l0,0c-20,0-36.1-16.2-36.1-36.1v-44.1c0-20,16.2-36.1,36.1-36.1l0,0
	c19.9,0,36.1,16.2,36.1,36.1V469.7z"/>
<g>
	<path fill="#AEBFCE" d="M218.1,425.7v8.9h36.1v-45C234.2,389.5,218.1,405.7,218.1,425.7z"/>
	<linearGradient id="SVGID_2_" gradientUnits="userSpaceOnUse" x1="272.2726" y1="434.5451" x2="272.2726" y2="389.5144">
		<stop  offset="0" style="stop-color:#CDEFFA"/>
		<stop  offset="1" style="stop-color:#FAFAFA"/>
	</linearGradient>
	<path fill="url(#SVGID_2_)" d="M290.3,425.7c0-20-16.2-36.1-36.1-36.1v45h36.1V425.7z"/>
	<path fill="#AEBFCE" d="M290.3,425.7c0-20-16.2-36.1-36.1-36.1v45h36.1V425.7z"/>
</g>
<path fill="#1C4670" d="M259.4,437.7c0,2.9-2.3,5.2-5.2,5.2l0,0c-2.9,0-5.2-2.3-5.2-5.2v-6.3c0-2.9,2.3-5.2,5.2-5.2l0,0
	c2.9,0,5.2,2.3,5.2,5.2V437.7z"/>
<g>
	<path fill="#FFA229" d="M474.4,45.3c0,0-6-7.3-20-2.3c-10.9,3.9-61.3,49.3-55.9,68.9c0,0,4,0.7,9.7-11.4c5.7-12.1,9.2-19,21.1-30.8
		c11.8-11.8,28.1-23.4,33.5-18.1L474.4,45.3z"/>
	<path fill="#1C4670" d="M435.7,141.1c-30.2,41-68.3,75.9-78.1,68.7c-9.8-7.2,12.4-53.9,42.7-94.9c30.3-41,72.1-81,81.9-73.8
		C491.9,48.4,465.9,100.1,435.7,141.1z"/>
	<path fill="#FFA229" d="M381.4,177.5c-4.8-3.5-10-5.9-15.3-7.1c-9.7,19.9-13.8,35.5-8.5,39.4c5.3,3.9,19-4.6,35.2-19.8
		C390,185.4,386.2,181.1,381.4,177.5z"/>
	
		<linearGradient id="SVGID_3_" gradientUnits="userSpaceOnUse" x1="400.7249" y1="-64.9546" x2="448.9927" y2="-64.9546" gradientTransform="matrix(0.8045 0.594 -0.594 0.8045 33.797 -67.0153)">
		<stop  offset="0" style="stop-color:#BDBDBD"/>
		<stop  offset="0.1172" style="stop-color:#ABABAB"/>
		<stop  offset="0.3225" style="stop-color:#919191"/>
		<stop  offset="0.5346" style="stop-color:#7F7F7F"/>
		<stop  offset="0.7556" style="stop-color:#747474"/>
		<stop  offset="1" style="stop-color:#707070"/>
	</linearGradient>
	<path fill="url(#SVGID_3_)" d="M433.6,147.4c-2.7,3.7-5.6,6.3-9.8,3.2L394.6,129c-4.2-3.1-2.6-6.6,0.2-10.3l0,0
		c2.8-3.7,5.6-6.3,9.8-3.2l29.2,21.6C438,140.2,436.3,143.7,433.6,147.4L433.6,147.4z"/>
	
		<linearGradient id="SVGID_4_" gradientUnits="userSpaceOnUse" x1="418.9984" y1="32.3656" x2="430.7301" y2="32.3656" gradientTransform="matrix(0.8045 0.594 -0.594 0.8045 33.797 -67.0153)">
		<stop  offset="0" style="stop-color:#286891"/>
		<stop  offset="1.002896e-02" style="stop-color:#276790"/>
		<stop  offset="0.2403" style="stop-color:#1C5176"/>
		<stop  offset="0.4781" style="stop-color:#144264"/>
		<stop  offset="0.726" style="stop-color:#103959"/>
		<stop  offset="1" style="stop-color:#0E3655"/>
	</linearGradient>
	<path fill="url(#SVGID_4_)" d="M360.6,205.7c-1.7-1.2-3.6-2.1-5.4-2.5c-3.4,7.1-4.9,12.6-3,14c1.9,1.4,6.7-1.6,12.4-7
		C363.6,208.5,362.3,206.9,360.6,205.7z"/>
	<path fill="#FFA229" d="M433.6,147.4c-2.7,3.7-5.6,6.3-9.8,3.2L394.6,129c-4.2-3.1-2.6-6.6,0.2-10.3l0,0c2.8-3.7,5.6-6.3,9.8-3.2
		l29.2,21.6C438,140.2,436.3,143.7,433.6,147.4L433.6,147.4z"/>
</g>
<g>
	<path fill="#FFA229" d="M16.6,145.7c0,0,4.8-5.9,15.9-1.8c8.7,3.1,48.8,39.3,44.6,54.9c0,0-3.2,0.6-7.7-9.1
		c-4.5-9.7-7.4-15.2-16.8-24.6c-9.4-9.4-22.4-18.7-26.7-14.5L16.6,145.7z"/>
	<path fill="#1C4670" d="M47.5,222.1c24.1,32.7,54.5,60.5,62.3,54.8c7.8-5.8-9.9-43-34-75.6c-24.1-32.7-57.5-64.5-65.3-58.8
		C2.7,148.2,23.3,189.4,47.5,222.1z"/>
	<path fill="#FFA229" d="M90.7,251.1c3.8-2.8,8-4.7,12.2-5.7c7.8,15.9,11,28.3,6.8,31.4c-4.2,3.1-15.1-3.7-28-15.7
		C83.9,257.4,86.9,254,90.7,251.1z"/>
	
		<linearGradient id="SVGID_5_" gradientUnits="userSpaceOnUse" x1="356.6841" y1="73.8895" x2="395.1513" y2="73.8895" gradientTransform="matrix(-0.8045 0.594 0.594 0.8045 323.119 -67.0153)">
		<stop  offset="0" style="stop-color:#BDBDBD"/>
		<stop  offset="0.1172" style="stop-color:#ABABAB"/>
		<stop  offset="0.3225" style="stop-color:#919191"/>
		<stop  offset="0.5346" style="stop-color:#7F7F7F"/>
		<stop  offset="0.7556" style="stop-color:#747474"/>
		<stop  offset="1" style="stop-color:#707070"/>
	</linearGradient>
	<path fill="url(#SVGID_5_)" d="M49.1,227.1c2.2,3,4.5,5,7.8,2.5l23.3-17.2c3.3-2.5,2-5.2-0.1-8.2l0,0c-2.2-3-4.5-5-7.8-2.5L49,219
		C45.6,221.4,46.9,224.2,49.1,227.1L49.1,227.1z"/>
	<path fill="#1C4670" d="M107.3,273.6c1.3-1,2.8-1.7,4.3-2c2.7,5.6,3.9,10,2.4,11.1c-1.5,1.1-5.3-1.3-9.9-5.6
		C104.9,275.8,105.9,274.6,107.3,273.6z"/>
	<path fill="#FFA229" d="M49.1,227.1c2.2,3,4.5,5,7.8,2.5l23.3-17.2c3.3-2.5,2-5.2-0.1-8.2l0,0c-2.2-3-4.5-5-7.8-2.5L49,219
		C45.6,221.4,46.9,224.2,49.1,227.1L49.1,227.1z"/>
</g>
</svg>
