<?xml version="1.0" encoding="utf-8"?>
<!-- Generator: Adobe Illustrator 24.0.2, SVG Export Plug-In . SVG Version: 6.00 Build 0)  -->
<svg version="1.1" id="Layer_1" xmlns="http://www.w3.org/2000/svg" xmlns:xlink="http://www.w3.org/1999/xlink" x="0px" y="0px"
	 viewBox="0 0 512 512" enable-background="new 0 0 512 512" xml:space="preserve">
<g>
	<g>
		<rect x="387.2" y="167.7" fill="#CDCCCA" width="118.7" height="58.3"/>
	</g>
	<g>
		<rect x="399" y="167.7" fill="#F2F2F2" width="5.2" height="58.3"/>
	</g>
	<g>
		<rect x="489.5" y="167.7" fill="#F2F2F2" width="5.2" height="58.3"/>
	</g>
	<g>
		<g>
			<path fill="#F2F2F2" d="M459.7,204.1c0,2.5-0.9,4.5-2.7,6c-1.8,1.5-4.3,2.4-7.5,2.7v4.8h-3.2v-4.7c-3.8-0.1-7.1-0.7-10-2v-6.2
				c1.4,0.7,3,1.3,4.9,1.8c1.9,0.5,3.6,0.8,5.1,0.9v-7.2l-1.6-0.6c-3.1-1.2-5.3-2.5-6.6-4c-1.3-1.4-1.9-3.2-1.9-5.3
				c0-2.3,0.9-4.1,2.7-5.6c1.8-1.5,4.2-2.3,7.4-2.7v-3.6h3.2v3.5c3.6,0.2,6.8,0.9,9.7,2.1l-2.2,5.5c-2.4-1-4.9-1.6-7.5-1.8v6.9
				c3,1.2,5.2,2.2,6.5,3c1.3,0.9,2.2,1.8,2.8,2.8C459.4,201.5,459.7,202.7,459.7,204.1z M443.3,190.2c0,0.7,0.2,1.2,0.7,1.7
				c0.5,0.4,1.2,0.9,2.3,1.4v-5.5C444.3,188.1,443.3,188.9,443.3,190.2z M452.7,204.4c0-0.7-0.3-1.2-0.8-1.7
				c-0.5-0.4-1.3-0.9-2.4-1.4v5.8C451.6,206.8,452.7,205.9,452.7,204.4z"/>
		</g>
	</g>
	<g>
		<rect x="40.8" y="88.4" fill="#CDCCCA" width="98.7" height="48.5"/>
	</g>
	<g>
		<rect x="50.6" y="88.4" fill="#F2F2F2" width="4.4" height="48.5"/>
	</g>
	<g>
		<rect x="125.8" y="88.4" fill="#F2F2F2" width="4.4" height="48.5"/>
	</g>
	<g>
		<g>
			<path fill="#F2F2F2" d="M101.1,118.6c0,2.1-0.7,3.7-2.2,5c-1.5,1.2-3.6,2-6.3,2.2v4h-2.7v-3.9c-3.2-0.1-5.9-0.6-8.3-1.7v-5.1
				c1.1,0.6,2.5,1,4.1,1.5c1.6,0.4,3,0.7,4.2,0.8v-6l-1.3-0.5c-2.6-1-4.4-2.1-5.5-3.3c-1.1-1.2-1.6-2.7-1.6-4.4
				c0-1.9,0.7-3.4,2.2-4.6c1.5-1.2,3.5-1.9,6.2-2.2v-3h2.7v2.9c3,0.1,5.6,0.7,8,1.8l-1.8,4.5c-2-0.8-4.1-1.3-6.2-1.5v5.7
				c2.5,1,4.3,1.8,5.4,2.5c1.1,0.7,1.9,1.5,2.3,2.4C100.8,116.5,101.1,117.5,101.1,118.6z M87.4,107.1c0,0.6,0.2,1,0.6,1.4
				c0.4,0.4,1,0.8,1.9,1.1v-4.6C88.2,105.3,87.4,106,87.4,107.1z M95.2,118.9c0-0.5-0.2-1-0.7-1.4c-0.4-0.4-1.1-0.8-2-1.2v4.8
				C94.3,120.9,95.2,120.1,95.2,118.9z"/>
		</g>
	</g>
	<g>
		<rect x="84.2" y="108.7" fill="#FF916E" width="343.5" height="44.6"/>
	</g>
	<g>
		<rect x="96" y="141.5" fill="#CDCCCA" width="319.9" height="221.6"/>
	</g>
	<g>
		<rect x="96" y="136.3" fill="#F2F2F2" width="319.9" height="221.6"/>
	</g>
	<g>
		<rect x="84.2" y="114" fill="#F77B55" width="343.5" height="44.6"/>
	</g>
	<g>
		<g>
			<path fill="#FFFFFF" d="M172,136.3c0,6.5-5.3,11.8-11.8,11.8c-6.5,0-11.8-5.3-11.8-11.8c0-6.5,5.3-11.8,11.8-11.8
				C166.7,124.4,172,129.7,172,136.3z"/>
		</g>
		<g>
			<path fill="#FFFFFF" d="M363.4,136.3c0,6.5-5.3,11.8-11.8,11.8c-6.5,0-11.8-5.3-11.8-11.8c0-6.5,5.3-11.8,11.8-11.8
				C358.1,124.4,363.4,129.7,363.4,136.3z"/>
		</g>
	</g>
	<g>
		<path fill="#CDCCCA" d="M160.3,141.1h-0.6c-3.6,0-6.5-2.9-6.5-6.5V96.4c0-3.6,2.9-6.5,6.5-6.5h0.6c3.6,0,6.5,2.9,6.5,6.5v38.2
			C166.8,138.2,163.9,141.1,160.3,141.1z"/>
	</g>
	<g>
		<path fill="#CDCCCA" d="M351.9,141.1h-0.6c-3.6,0-6.5-2.9-6.5-6.5V96.4c0-3.6,2.9-6.5,6.5-6.5h0.6c3.6,0,6.5,2.9,6.5,6.5v38.2
			C358.4,138.2,355.5,141.1,351.9,141.1z"/>
	</g>
	<g>
		<rect x="105.7" y="180.2" fill="#FFFFFF" width="35.4" height="35.4"/>
	</g>
	<g>
		<rect x="149.8" y="180.2" fill="#FFFFFF" width="35.4" height="35.4"/>
	</g>
	<g>
		<rect x="193.9" y="180.2" fill="#FFFFFF" width="35.4" height="35.4"/>
	</g>
	<g>
		<rect x="237.9" y="180.2" fill="#FFFFFF" width="35.4" height="35.4"/>
	</g>
	<g>
		<rect x="282" y="180.2" fill="#FFFFFF" width="35.4" height="35.4"/>
	</g>
	<g>
		<rect x="326.1" y="180.2" fill="#FFFFFF" width="35.4" height="35.4"/>
	</g>
	<g>
		<rect x="370.2" y="180.2" fill="#FFFFFF" width="35.4" height="35.4"/>
	</g>
	<g>
		<rect x="105.7" y="223.1" fill="#FFFFFF" width="35.4" height="35.4"/>
	</g>
	<g>
		<rect x="149.8" y="223.1" fill="#FFFFFF" width="35.4" height="35.4"/>
	</g>
	<g>
		<rect x="193.9" y="223.1" fill="#FFFFFF" width="35.4" height="35.4"/>
	</g>
	<g>
		<rect x="237.9" y="223.1" fill="#FFFFFF" width="35.4" height="35.4"/>
	</g>
	<g>
		<rect x="282" y="223.1" fill="#FFFFFF" width="35.4" height="35.4"/>
	</g>
	<g>
		<rect x="326.1" y="223.1" fill="#FFFFFF" width="35.4" height="35.4"/>
	</g>
	<g>
		<rect x="370.2" y="223.1" fill="#FFFFFF" width="35.4" height="35.4"/>
	</g>
	<g>
		<rect x="105.7" y="266" fill="#FFFFFF" width="35.4" height="35.4"/>
	</g>
	<g>
		<rect x="149.8" y="266" fill="#FFFFFF" width="35.4" height="35.4"/>
	</g>
	<g>
		<rect x="193.9" y="266" fill="#FFFFFF" width="35.4" height="35.4"/>
	</g>
	<g>
		<rect x="237.9" y="266" fill="#FFFFFF" width="35.4" height="35.4"/>
	</g>
	<g>
		<rect x="282" y="266" fill="#FFFFFF" width="35.4" height="35.4"/>
	</g>
	<g>
		<rect x="326.1" y="266" fill="#FFFFFF" width="35.4" height="35.4"/>
	</g>
	<g>
		<rect x="370.2" y="266" fill="#FFFFFF" width="35.4" height="35.4"/>
	</g>
	<g>
		<rect x="105.7" y="309" fill="#FFFFFF" width="35.4" height="35.4"/>
	</g>
	<g>
		<rect x="149.8" y="309" fill="#FFFFFF" width="35.4" height="35.4"/>
	</g>
	<g>
		<rect x="193.9" y="309" fill="#FFFFFF" width="35.4" height="35.4"/>
	</g>
	<g>
		<g>
			<polygon fill="#333D47" points="121.5,211 107.8,198.1 111.2,194.5 121.1,203.8 134.7,187.3 138.5,190.5 			"/>
		</g>
	</g>
	<g>
		<g>
			<polygon fill="#333D47" points="166.5,253.4 152.9,240.5 156.3,236.9 166.1,246.2 179.7,229.7 183.5,232.8 			"/>
		</g>
	</g>
	<g>
		<g>
			<polygon fill="#333D47" points="254.8,211 241.1,198.1 244.5,194.5 254.4,203.8 267.9,187.3 271.8,190.5 			"/>
		</g>
	</g>
	<g>
		<g>
			<polygon fill="#333D47" points="387.2,253 373.5,240 376.9,236.5 386.8,245.8 400.4,229.3 404.2,232.4 			"/>
		</g>
	</g>
	<g>
		<g>
			<polygon fill="#333D47" points="299,295.4 285.3,282.4 288.7,278.8 298.5,288.1 312.1,271.7 315.9,274.8 			"/>
		</g>
	</g>
	<g>
		<g>
			<path fill="#FECA5C" d="M448.4,158.2c0,12-9.8,21.8-21.8,21.8c-12,0-21.8-9.8-21.8-21.8c0-12,9.8-21.8,21.8-21.8
				C438.6,136.4,448.4,146.2,448.4,158.2z"/>
		</g>
		<g>
			<path fill="#FFDB7A" d="M442.6,158.2c0,8.8-7.2,16-16,16c-8.8,0-16-7.2-16-16c0-8.8,7.2-16,16-16
				C435.4,142.3,442.6,149.4,442.6,158.2z"/>
		</g>
	</g>
	<g>
		<g>
			<path fill="#FECA5C" d="M435,161.6c0,1.7-0.6,3-1.8,4c-1.2,1-2.9,1.6-5.1,1.8v3.2H426v-3.2c-2.6-0.1-4.8-0.5-6.8-1.4V162
				c0.9,0.5,2,0.9,3.3,1.2c1.3,0.3,2.4,0.6,3.5,0.6v-4.9l-1.1-0.4c-2.1-0.8-3.6-1.7-4.4-2.7c-0.9-1-1.3-2.2-1.3-3.6
				c0-1.5,0.6-2.8,1.8-3.8c1.2-1,2.9-1.6,5-1.8v-2.4h2.2v2.4c2.4,0.1,4.6,0.6,6.6,1.5l-1.5,3.7c-1.6-0.7-3.3-1.1-5.1-1.2v4.7
				c2.1,0.8,3.5,1.5,4.4,2.1c0.9,0.6,1.5,1.2,1.9,1.9C434.8,159.9,435,160.7,435,161.6z M423.9,152.3c0,0.5,0.2,0.8,0.5,1.1
				c0.3,0.3,0.8,0.6,1.6,0.9v-3.7C424.6,150.8,423.9,151.4,423.9,152.3z M430.3,161.9c0-0.4-0.2-0.8-0.5-1.1
				c-0.4-0.3-0.9-0.6-1.6-0.9v3.9C429.6,163.5,430.3,162.9,430.3,161.9z"/>
		</g>
	</g>
	<g>
		<g>
			<path fill="#FECA5C" d="M335.2,369.9c0,12-9.8,21.8-21.8,21.8c-12,0-21.8-9.8-21.8-21.8c0-12,9.8-21.8,21.8-21.8
				C325.4,348.1,335.2,357.9,335.2,369.9z"/>
		</g>
		<g>
			<path fill="#FFDB7A" d="M329.4,369.9c0,8.8-7.2,16-16,16c-8.8,0-16-7.2-16-16c0-8.8,7.2-16,16-16
				C322.2,353.9,329.4,361.1,329.4,369.9z"/>
		</g>
	</g>
	<g>
		<g>
			<path fill="#FECA5C" d="M321.9,373.3c0,1.7-0.6,3-1.8,4c-1.2,1-2.9,1.6-5.1,1.8v3.2h-2.2v-3.2c-2.6-0.1-4.8-0.5-6.8-1.4v-4.2
				c0.9,0.5,2,0.9,3.3,1.2c1.3,0.3,2.4,0.6,3.5,0.6v-4.9l-1.1-0.4c-2.1-0.8-3.6-1.7-4.4-2.7c-0.9-1-1.3-2.2-1.3-3.6
				c0-1.5,0.6-2.8,1.8-3.8c1.2-1,2.9-1.6,5-1.8V356h2.2v2.4c2.4,0.1,4.6,0.6,6.6,1.5l-1.5,3.7c-1.6-0.7-3.3-1.1-5.1-1.2v4.7
				c2.1,0.8,3.5,1.5,4.4,2.1c0.9,0.6,1.5,1.2,1.9,1.9C321.7,371.6,321.9,372.4,321.9,373.3z M310.7,363.9c0,0.5,0.2,0.8,0.5,1.1
				c0.3,0.3,0.8,0.6,1.6,0.9v-3.7C311.4,362.5,310.7,363.1,310.7,363.9z M317.1,373.6c0-0.4-0.2-0.8-0.5-1.1c-0.4-0.3-0.9-0.6-1.6-1
				v3.9C316.4,375.2,317.1,374.6,317.1,373.6z"/>
		</g>
	</g>
	<g>
		<g>
			<path fill="#FECA5C" d="M83.4,240.8c0,12-9.8,21.8-21.8,21.8c-12,0-21.8-9.8-21.8-21.8c0-12,9.8-21.8,21.8-21.8
				C73.7,219,83.4,228.8,83.4,240.8z"/>
		</g>
		<g>
			<path fill="#FFDB7A" d="M77.6,240.8c0,8.8-7.2,16-16,16c-8.8,0-16-7.2-16-16c0-8.8,7.2-16,16-16C70.5,224.8,77.6,232,77.6,240.8z
				"/>
		</g>
	</g>
	<g>
		<g>
			<path fill="#FECA5C" d="M70.1,244.2c0,1.7-0.6,3-1.8,4c-1.2,1-2.9,1.6-5.1,1.8v3.2h-2.2v-3.2c-2.6-0.1-4.8-0.5-6.8-1.4v-4.2
				c0.9,0.5,2,0.9,3.3,1.2c1.3,0.4,2.4,0.6,3.5,0.6v-4.9l-1.1-0.4c-2.1-0.8-3.6-1.7-4.4-2.7c-0.9-1-1.3-2.2-1.3-3.6
				c0-1.5,0.6-2.8,1.8-3.8c1.2-1,2.9-1.6,5-1.8v-2.4h2.2v2.4c2.4,0.1,4.6,0.6,6.5,1.5l-1.5,3.7c-1.6-0.7-3.3-1.1-5.1-1.2v4.7
				c2.1,0.8,3.5,1.5,4.4,2.1c0.9,0.6,1.5,1.2,1.9,1.9C69.9,242.4,70.1,243.3,70.1,244.2z M59,234.8c0,0.5,0.2,0.8,0.5,1.1
				c0.3,0.3,0.8,0.6,1.6,0.9v-3.7C59.7,233.4,59,233.9,59,234.8z M65.4,244.4c0-0.4-0.2-0.8-0.5-1.1c-0.4-0.3-0.9-0.6-1.6-0.9v3.9
				C64.7,246,65.4,245.4,65.4,244.4z"/>
		</g>
	</g>
	<g>
		<rect x="5.7" y="281.1" fill="#CDCCCA" width="118.6" height="58.3"/>
	</g>
	<g>
		<rect x="17.5" y="281.1" fill="#F2F2F2" width="5.2" height="58.3"/>
	</g>
	<g>
		<rect x="108" y="281.1" fill="#F2F2F2" width="5.2" height="58.3"/>
	</g>
	<g>
		<g>
			<path fill="#F2F2F2" d="M78.2,317.5c0,2.5-0.9,4.5-2.7,6c-1.8,1.5-4.3,2.4-7.5,2.7v4.8h-3.2v-4.7c-3.8-0.1-7.1-0.8-10-2V318
				c1.4,0.7,3,1.3,4.9,1.8c1.9,0.5,3.6,0.8,5.1,0.9v-7.2l-1.6-0.6c-3.1-1.2-5.3-2.5-6.6-4c-1.3-1.4-1.9-3.2-1.9-5.3
				c0-2.3,0.9-4.1,2.7-5.6c1.8-1.5,4.2-2.4,7.4-2.7v-3.6H68v3.5c3.6,0.2,6.8,0.9,9.7,2.2l-2.2,5.5c-2.4-1-4.9-1.6-7.5-1.8v6.9
				c3,1.2,5.2,2.2,6.5,3c1.3,0.9,2.2,1.8,2.8,2.8C77.9,314.9,78.2,316.1,78.2,317.5z M61.8,303.6c0,0.7,0.2,1.2,0.7,1.7
				c0.5,0.4,1.2,0.9,2.3,1.4v-5.5C62.8,301.5,61.8,302.3,61.8,303.6z M71.2,317.8c0-0.7-0.3-1.2-0.8-1.7c-0.5-0.4-1.3-0.9-2.4-1.4
				v5.8C70.1,320.2,71.2,319.3,71.2,317.8z"/>
		</g>
	</g>
</g>
</svg>
