<?xml version="1.0" encoding="iso-8859-1"?>
<!-- Generator: Adobe Illustrator 19.0.0, SVG Export Plug-In . SVG Version: 6.00 Build 0)  -->
<svg xmlns="http://www.w3.org/2000/svg" xmlns:xlink="http://www.w3.org/1999/xlink" version="1.1" id="Capa_1" x="0px" y="0px" viewBox="0 0 511.551 511.551" style="enable-background:new 0 0 511.551 511.551;" xml:space="preserve">
<g>
	<g>
		<path style="fill:#FFE100;" d="M59.681,204.529H25.578c-4.706,0-8.526-3.826-8.526-8.541s3.82-8.541,8.526-8.541h34.103    c4.706,0,8.526,3.826,8.526,8.541S64.387,204.529,59.681,204.529"/>
		<path style="fill:#FFE100;" d="M59.681,144.743H8.526c-4.706,0-8.526-3.826-8.526-8.541c0-4.715,3.82-8.541,8.526-8.541h51.155    c4.706,0,8.526,3.826,8.526,8.541C68.207,140.917,64.387,144.743,59.681,144.743"/>
		<path style="fill:#FFE100;" d="M59.681,264.315H42.629c-4.706,0-8.526-3.826-8.526-8.541c0-4.715,3.82-8.541,8.526-8.541h17.052    c4.706,0,8.526,3.826,8.526,8.541C68.207,260.489,64.387,264.315,59.681,264.315"/>
		<path style="fill:#FFE100;" d="M477.448,400.969h-349.56c-14.127,0-25.578-11.47-25.578-25.623V136.202    c0-14.152,11.45-25.623,25.578-25.623h349.56c14.127,0,25.578,11.47,25.578,25.623v239.144    C503.025,389.499,491.575,400.969,477.448,400.969"/>
	</g>
	<path style="fill:#FFA800;" d="M477.448,110.579H451.87c14.127,0,25.578,11.47,25.578,25.623v239.144   c0,14.152-11.45,25.623-25.578,25.623h25.578c14.127,0,25.578-11.47,25.578-25.623V136.202   C503.025,122.05,491.575,110.579,477.448,110.579"/>
	<path style="fill:#FFFFFF;" d="M119.362,110.579h25.578c-14.127,0-25.578,11.47-25.578,25.623v239.144   c0,14.152,11.45,25.623,25.578,25.623h-25.578c-14.127,0-25.578-11.47-25.578-25.623V136.202   C93.784,122.05,105.235,110.579,119.362,110.579"/>
	<path style="fill:#FDCC00;" d="M252.778,263.217c25.509,24.487,65.743,24.487,91.252,0l151.325-145.28   c-4.612-4.544-10.93-7.354-17.904-7.354H119.365c-6.983,0-13.3,2.81-17.913,7.354L252.778,263.217z"/>
	<g>
		<path d="M258.677,257.05c22.278,21.386,57.174,21.386,79.452,0l143.209-137.482c-1.262-0.29-2.566-0.444-3.888-0.444H119.364    c-1.33,0-2.634,0.154-3.896,0.444L258.677,257.05z M298.407,290.18c-18.544,0-37.079-6.927-51.53-20.797L95.552,124.112    c-1.671-1.606-2.617-3.809-2.626-6.124c-0.017-2.306,0.904-4.527,2.549-6.141c6.428-6.329,14.912-9.805,23.889-9.805H477.45    c8.978,0,17.461,3.476,23.881,9.805c1.645,1.623,2.566,3.835,2.549,6.149c-0.017,2.306-0.963,4.51-2.626,6.115L349.929,269.383    C335.486,283.254,316.942,290.18,298.407,290.18L298.407,290.18z"/>
		<path d="M115.469,391.978c1.262,0.299,2.566,0.453,3.888,0.453h358.094c1.321,0,2.626-0.154,3.888-0.453L351.78,267.606    l-1.85,1.776c-28.894,27.741-74.166,27.741-103.052,0l-1.85-1.776L115.469,391.978z M477.451,409.512H119.357    c-8.969,0-17.452-3.485-23.881-9.813c-1.645-1.614-2.566-3.835-2.558-6.141c0.017-2.306,0.963-4.518,2.634-6.115L239.128,249.61    c3.299-3.169,8.5-3.169,11.8,0l7.75,7.448c22.27,21.378,57.174,21.369,79.452-0.009l7.75-7.439c3.299-3.169,8.5-3.169,11.8,0    l143.575,137.833c1.663,1.597,2.609,3.801,2.626,6.115c0.017,2.306-0.904,4.518-2.549,6.141    C494.903,406.028,486.429,409.512,477.451,409.512L477.451,409.512z"/>
		<path d="M59.681,195.988H25.578c-4.706,0-8.526-3.826-8.526-8.541c0-4.715,3.82-8.541,8.526-8.541h34.103    c4.706,0,8.526,3.826,8.526,8.541C68.207,192.162,64.387,195.988,59.681,195.988"/>
		<path d="M59.681,136.202H8.526c-4.706,0-8.526-3.826-8.526-8.541s3.82-8.541,8.526-8.541h51.155c4.706,0,8.526,3.826,8.526,8.541    S64.387,136.202,59.681,136.202"/>
		<path d="M59.681,255.774H42.629c-4.706,0-8.526-3.826-8.526-8.541c0-4.715,3.82-8.541,8.526-8.541h17.052    c4.706,0,8.526,3.826,8.526,8.541C68.207,251.948,64.387,255.774,59.681,255.774"/>
		<path d="M102.31,264.315c0,4.715-3.82,8.541-8.526,8.541s-8.526-3.826-8.526-8.541c0-4.715,3.82-8.541,8.526-8.541    S102.31,259.6,102.31,264.315"/>
		<path d="M477.448,409.51H119.362c-18.808,0-34.103-15.322-34.103-34.164v-76.868c0-4.715,3.82-8.541,8.526-8.541    s8.526,3.826,8.526,8.541v76.868c0,9.421,7.648,17.082,17.052,17.082h358.086c9.404,0,17.052-7.661,17.052-17.082V136.202    c0-9.421-7.648-17.082-17.052-17.082H119.362c-9.404,0-17.052,7.661-17.052,17.082v93.95c0,4.715-3.82,8.541-8.526,8.541    s-8.526-3.826-8.526-8.541v-93.95c0-18.841,15.295-34.163,34.103-34.163h358.086c18.808,0,34.103,15.322,34.103,34.163v239.144    C511.551,394.188,496.256,409.51,477.448,409.51"/>
	</g>
</g>
<g>
</g>
<g>
</g>
<g>
</g>
<g>
</g>
<g>
</g>
<g>
</g>
<g>
</g>
<g>
</g>
<g>
</g>
<g>
</g>
<g>
</g>
<g>
</g>
<g>
</g>
<g>
</g>
<g>
</g>
</svg>
