<?xml version="1.0" encoding="iso-8859-1"?>
<!-- Generator: Adobe Illustrator 21.0.0, SVG Export Plug-In . SVG Version: 6.00 Build 0)  -->
<svg version="1.1" id="Capa_1" xmlns="http://www.w3.org/2000/svg" xmlns:xlink="http://www.w3.org/1999/xlink" x="0px" y="0px"
	 viewBox="0 0 512 512" style="enable-background:new 0 0 512 512;" xml:space="preserve">
<g id="XMLID_310_">
	<path id="XMLID_311_" style="fill:#D3D8DF;" d="M512,282.701v-53.403c0-5.447-4.133-10.006-9.554-10.539l-59.589-5.857
		c-4.324-0.425-7.897-3.483-9.087-7.662c-3.924-13.775-9.4-26.895-16.237-39.155c-2.102-3.77-1.628-8.454,1.111-11.791
		l37.951-46.226c3.457-4.21,3.155-10.356-0.697-14.208L418.139,56.1c-3.852-3.852-9.998-4.153-14.208-0.697l-46.226,37.951
		c-3.336,2.739-8.021,3.214-11.791,1.111c-12.259-6.836-25.38-12.313-39.155-16.237c-4.178-1.19-7.237-4.763-7.662-9.087
		l-5.857-59.589C292.708,4.133,288.149,0,282.702,0h-53.403c-5.447,0-10.006,4.133-10.539,9.554l-5.857,59.589
		c-0.425,4.324-3.483,7.897-7.662,9.087c-13.775,3.924-26.895,9.4-39.155,16.237c-3.77,2.102-8.454,1.628-11.791-1.111
		l-46.226-37.951c-4.21-3.457-10.356-3.155-14.208,0.697L56.1,93.861c-3.852,3.852-4.153,9.998-0.697,14.208l37.951,46.226
		c2.739,3.336,3.214,8.021,1.111,11.791c-6.836,12.259-12.313,25.38-16.237,39.155c-1.19,4.178-4.763,7.237-9.087,7.662
		L9.554,218.76C4.133,219.292,0,223.851,0,229.299v53.403c0,5.447,4.133,10.006,9.554,10.539l59.589,5.857
		c4.324,0.425,7.897,3.483,9.087,7.662c3.924,13.775,9.4,26.895,16.237,39.155c2.102,3.77,1.628,8.454-1.111,11.791l-37.951,46.226
		c-3.457,4.21-3.155,10.356,0.697,14.208L93.861,455.9c3.852,3.852,9.998,4.153,14.208,0.697l46.226-37.951
		c3.336-2.739,8.021-3.214,11.791-1.111c12.26,6.836,25.38,12.313,39.155,16.237c4.178,1.19,7.237,4.763,7.662,9.087l5.857,59.589
		c0.533,5.421,5.092,9.554,10.539,9.554h53.403c5.447,0,10.006-4.133,10.539-9.554l5.857-59.589
		c0.425-4.324,3.483-7.897,7.662-9.087c13.775-3.924,26.895-9.4,39.155-16.237c3.77-2.102,8.454-1.628,11.791,1.111l46.226,37.951
		c4.21,3.457,10.356,3.155,14.208-0.697l37.761-37.761c3.852-3.852,4.153-9.998,0.697-14.208l-37.951-46.226
		c-2.739-3.336-3.214-8.021-1.111-11.791c6.836-12.26,12.313-25.38,16.237-39.155c1.19-4.178,4.763-7.237,9.087-7.662l59.589-5.857
		C507.867,292.708,512,288.149,512,282.701z"/>
	<path id="XMLID_312_" style="fill:#C2C6CC;" d="M256,413.618c-86.91,0-157.618-70.707-157.618-157.618S169.09,98.382,256,98.382
		S413.618,169.09,413.618,256S342.91,413.618,256,413.618z"/>
	<circle style="fill:#74E2CD;" cx="256" cy="256" r="145.256"/>
	<path id="XMLID_313_" style="fill:#4FCEB7;" d="M256,378.802c-67.713,0-122.802-55.089-122.802-122.802
		S188.287,133.198,256,133.198S378.802,188.287,378.802,256S323.713,378.802,256,378.802z"/>
	<circle style="fill:#EBEEF2;" cx="256" cy="256" r="110.44"/>
	<g id="XMLID_314_">
		<g id="XMLID_315_">
			<path id="XMLID_316_" style="fill:#C2C6CC;" d="M303.374,308.338h-94.748c-4.268,0-7.726-3.459-7.726-7.726
				s3.459-7.726,7.726-7.726h94.748c4.268,0,7.726,3.459,7.726,7.726S307.642,308.338,303.374,308.338z"/>
			<path id="XMLID_317_" style="fill:#EB5777;" d="M259.044,316.235c-4.268,0-7.726-3.459-7.726-7.726v-15.796
				c0-4.268,3.459-7.726,7.726-7.726c4.268,0,7.726,3.459,7.726,7.726v15.796C266.771,312.777,263.312,316.235,259.044,316.235z"/>
		</g>
		<g id="XMLID_318_">
			<path id="XMLID_319_" style="fill:#C2C6CC;" d="M303.374,263.726h-94.748c-4.268,0-7.726-3.459-7.726-7.726
				s3.459-7.726,7.726-7.726h94.748c4.268,0,7.726,3.459,7.726,7.726S307.642,263.726,303.374,263.726z"/>
			<path id="XMLID_320_" style="fill:#EB5777;" d="M288.92,271.625c-4.268,0-7.726-3.459-7.726-7.726v-15.797
				c0-4.268,3.459-7.726,7.726-7.726s7.726,3.459,7.726,7.726v15.797C296.646,268.166,293.187,271.625,288.92,271.625z"/>
		</g>
		<g id="XMLID_321_">
			<path id="XMLID_322_" style="fill:#C2C6CC;" d="M303.374,219.115h-94.748c-4.268,0-7.726-3.459-7.726-7.726
				c0-4.268,3.459-7.726,7.726-7.726h94.748c4.268,0,7.726,3.459,7.726,7.726C311.101,215.656,307.642,219.115,303.374,219.115z"/>
			<path id="XMLID_323_" style="fill:#EB5777;" d="M233.679,227.013c-4.268,0-7.726-3.459-7.726-7.726v-15.796
				c0-4.268,3.459-7.726,7.726-7.726s7.726,3.459,7.726,7.726v15.796C241.405,223.554,237.947,227.013,233.679,227.013z"/>
		</g>
	</g>
	<g id="XMLID_324_">
		<path id="XMLID_325_" style="fill:#EBEEF2;" d="M256.057,72.045c-0.023,0-0.046,0-0.07,0l-0.113-0.001
			c-4.267-0.038-7.695-3.528-7.657-7.796c0.038-4.242,3.49-7.657,7.725-7.657c0.023,0,0.046,0,0.07,0l0.113,0.001
			c4.267,0.038,7.695,3.528,7.657,7.796C263.744,68.631,260.293,72.045,256.057,72.045z"/>
		<path id="XMLID_326_" style="fill:#EBEEF2;" d="M256.057,455.408c-0.023,0-0.046,0-0.07,0l-0.113-0.001
			c-4.267-0.038-7.695-3.528-7.657-7.796c0.038-4.242,3.49-7.657,7.725-7.657c0.023,0,0.046,0,0.07,0l0.113,0.001
			c4.267,0.038,7.695,3.528,7.657,7.796C263.744,451.994,260.293,455.408,256.057,455.408z"/>
	</g>
	<g id="XMLID_327_">
		<path id="XMLID_328_" style="fill:#EBEEF2;" d="M447.682,263.783c-0.023,0-0.046,0-0.07,0c-4.267-0.038-7.695-3.528-7.657-7.796
			l0.001-0.113c0.038-4.242,3.49-7.657,7.725-7.657c0.023,0,0.046,0,0.07,0c4.267,0.038,7.695,3.528,7.657,7.796l-0.001,0.113
			C455.369,260.368,451.918,263.783,447.682,263.783z"/>
		<path id="XMLID_329_" style="fill:#EBEEF2;" d="M64.319,263.783c-0.023,0-0.046,0-0.07,0c-4.267-0.038-7.695-3.528-7.657-7.796
			l0.001-0.113c0.038-4.242,3.49-7.657,7.725-7.657c0.023,0,0.046,0,0.07,0c4.267,0.038,7.695,3.528,7.657,7.796l-0.001,0.113
			C72.006,260.368,68.554,263.783,64.319,263.783z"/>
	</g>
</g>
<g>
</g>
<g>
</g>
<g>
</g>
<g>
</g>
<g>
</g>
<g>
</g>
<g>
</g>
<g>
</g>
<g>
</g>
<g>
</g>
<g>
</g>
<g>
</g>
<g>
</g>
<g>
</g>
<g>
</g>
</svg>
