<?xml version="1.0" encoding="iso-8859-1"?>
<!-- Generator: Adobe Illustrator 19.0.0, SVG Export Plug-In . SVG Version: 6.00 Build 0)  -->
<svg version="1.1" id="Capa_1" xmlns="http://www.w3.org/2000/svg" xmlns:xlink="http://www.w3.org/1999/xlink" x="0px" y="0px"
	 viewBox="0 0 511 511" style="enable-background:new 0 0 511 511;" xml:space="preserve">
<g>
	<g>
		<path d="M495.5,464H479v-24.5c0-4.142-3.358-7.5-7.5-7.5H455V263h24.5c4.142,0,7.5-3.358,7.5-7.5v-64c0-4.142-3.358-7.5-7.5-7.5
			h-28.986L260.69,2.085c-2.901-2.78-7.478-2.78-10.379,0L60.486,184H31.5c-4.142,0-7.5,3.358-7.5,7.5v64c0,4.142,3.358,7.5,7.5,7.5
			H56v169H39.5c-4.142,0-7.5,3.358-7.5,7.5V464H15.5c-4.142,0-7.5,3.358-7.5,7.5v32c0,4.142,3.358,7.5,7.5,7.5h480
			c4.142,0,7.5-3.358,7.5-7.5v-32C503,467.358,499.642,464,495.5,464z M440,432h-25V263h25V432z M375,432V263h25v169H375z M191,432
			V263h129v169H191z M111,432V263h25v169H111z M151,263h25v169h-25V263z M335,263h25v169h-25V263z M39,199h308.5
			c4.142,0,7.5-3.358,7.5-7.5s-3.358-7.5-7.5-7.5H82.166L255.5,17.888L428.834,184h-44.667c-4.142,0-7.5,3.358-7.5,7.5
			s3.358,7.5,7.5,7.5H472v49H39V199z M71,263h25v169H71V263z M47,447h417v17H47V447z M488,496H23v-17h465V496z"/>
		<path d="M276.3,339.4c4.142,0,7.5-3.358,7.5-7.5v-5.2c0-11.961-9.138-21.827-20.8-22.985V295.5c0-4.142-3.358-7.5-7.5-7.5
			s-7.5,3.358-7.5,7.5v8.574c-11.835,2.295-20.8,12.73-20.8,25.226c0,14.171,11.529,25.7,25.7,25.7h5.2c5.9,0,10.7,4.8,10.7,10.7
			s-4.8,10.7-10.7,10.7h-7.8c-4.466,0-8.1-3.634-8.1-8.1c0-4.142-3.358-7.5-7.5-7.5s-7.5,3.358-7.5,7.5
			c0,11.961,9.138,21.827,20.8,22.985v8.215c0,4.142,3.358,7.5,7.5,7.5s7.5-3.358,7.5-7.5v-8.574
			c11.835-2.295,20.8-12.73,20.8-25.226c0-14.171-11.529-25.7-25.7-25.7h-5.2c-5.9,0-10.7-4.8-10.7-10.7s4.8-10.7,10.7-10.7h7.8
			c4.466,0,8.1,3.634,8.1,8.1v5.2C268.8,336.042,272.158,339.4,276.3,339.4z"/>
		<path d="M255.5,72c-26.191,0-47.5,21.309-47.5,47.5s21.309,47.5,47.5,47.5s47.5-21.309,47.5-47.5S281.692,72,255.5,72z M255.5,152
			c-17.92,0-32.5-14.58-32.5-32.5S237.58,87,255.5,87s32.5,14.58,32.5,32.5S273.421,152,255.5,152z"/>
	</g>
</g>
<g>
</g>
<g>
</g>
<g>
</g>
<g>
</g>
<g>
</g>
<g>
</g>
<g>
</g>
<g>
</g>
<g>
</g>
<g>
</g>
<g>
</g>
<g>
</g>
<g>
</g>
<g>
</g>
<g>
</g>
</svg>
