<?xml version="1.0" standalone="no"?>
<!DOCTYPE svg PUBLIC "-//W3C//DTD SVG 20010904//EN"
 "http://www.w3.org/TR/2001/REC-SVG-20010904/DTD/svg10.dtd">
<svg version="1.0" xmlns="http://www.w3.org/2000/svg"
 width="128.000000pt" height="128.000000pt" viewBox="0 0 128.000000 128.000000"
 preserveAspectRatio="xMidYMid meet">

<g transform="translate(0.000000,128.000000) scale(0.100000,-0.100000)"
fill="#000000" stroke="none">
<path d="M11 1261 c-13 -24 9 -57 33 -48 23 9 31 34 16 52 -17 20 -37 19 -49
-4z"/>
<path d="M151 1266 c-15 -17 1 -56 23 -56 23 0 41 30 29 48 -14 23 -37 26 -52
8z"/>
<path d="M291 1266 c-15 -17 1 -56 23 -56 23 0 41 30 29 48 -14 23 -37 26 -52
8z"/>
<path d="M430 1266 c-27 -33 18 -72 48 -42 13 13 14 20 6 34 -15 23 -38 26
-54 8z"/>
<path d="M570 1266 c-27 -33 18 -72 48 -42 13 13 14 20 6 34 -15 23 -38 26
-54 8z"/>
<path d="M816 1221 c-71 -71 -70 -86 4 -155 52 -48 75 -54 94 -24 8 13 6 22
-12 41 -12 13 -22 27 -22 32 0 4 45 5 100 2 113 -6 144 -19 194 -80 29 -37 31
-45 34 -135 4 -105 16 -131 53 -111 16 8 19 22 19 88 0 142 -43 226 -142 275
-46 23 -64 26 -155 26 -57 0 -103 3 -103 7 0 4 10 17 22 30 18 19 20 28 12 41
-20 30 -38 23 -98 -37z"/>
<path d="M10 1121 c-7 -15 -6 -23 6 -35 19 -19 26 -20 42 -4 17 17 15 45 -4
52 -25 10 -33 7 -44 -13z"/>
<path d="M570 1126 c-27 -33 18 -72 48 -42 13 13 14 20 6 34 -15 23 -38 26
-54 8z"/>
<path d="M10 981 c-7 -15 -6 -24 6 -36 9 -9 21 -14 27 -12 18 6 31 33 24 51
-9 22 -44 20 -57 -3z"/>
<path d="M570 986 c-27 -33 18 -72 48 -42 13 13 14 20 6 34 -15 23 -38 26 -54
8z"/>
<path d="M10 841 c-7 -15 -6 -24 6 -36 9 -9 21 -14 27 -12 18 6 31 33 24 51
-9 22 -44 20 -57 -3z"/>
<path d="M572 848 c-30 -30 9 -69 44 -43 15 11 17 17 8 32 -14 23 -36 27 -52
11z"/>
<path d="M12 708 c-16 -16 -15 -23 4 -42 21 -22 56 -3 52 27 -3 25 -37 34 -56
15z"/>
<path d="M152 708 c-16 -16 -15 -23 4 -42 21 -22 56 -3 52 27 -3 25 -37 34
-56 15z"/>
<path d="M292 708 c-16 -16 -15 -23 4 -42 21 -22 56 -3 52 27 -3 25 -37 34
-56 15z"/>
<path d="M431 706 c-6 -7 -9 -20 -5 -29 15 -39 72 -19 60 21 -8 25 -38 29 -55
8z"/>
<path d="M572 708 c-30 -30 9 -69 44 -43 15 11 17 17 8 32 -14 23 -36 27 -52
11z"/>
<path d="M668 619 c-17 -9 -18 -34 -18 -302 0 -215 3 -296 12 -305 9 -9 90
-12 305 -12 279 0 293 1 303 19 6 12 10 126 10 300 0 241 -2 282 -16 295 -13
14 -54 16 -297 16 -173 0 -289 -5 -299 -11z m542 -304 l0 -245 -245 0 -245 0
0 245 0 245 245 0 245 0 0 -245z"/>
<path d="M17 489 c-14 -8 -17 -25 -17 -88 0 -142 43 -226 142 -275 46 -23 64
-26 155 -26 57 0 103 -3 103 -7 0 -4 -10 -17 -21 -29 -23 -25 -20 -50 7 -61
20 -7 134 103 134 131 0 26 -104 129 -126 124 -9 -1 -22 -11 -28 -20 -8 -13
-6 -22 12 -41 12 -13 22 -27 22 -32 0 -4 -45 -5 -100 -2 -113 6 -144 19 -194
80 -29 37 -31 44 -34 138 -3 80 -7 101 -21 108 -10 6 -23 5 -34 0z"/>
</g>
</svg>
