<svg id="Capa_1" enable-background="new 0 0 510.641 510.641" height="512" viewBox="0 0 510.641 510.641" width="512" xmlns="http://www.w3.org/2000/svg"><g><path d="m255.32 34.641 66.503 38.395 15-25.98-81.503-47.056-81.502 47.056 15 25.98z"/><path d="m64.206 144.98 66.503-38.395-15-25.981-81.503 47.056v94.111h30z"/><path d="m64.206 288.87h-30v94.11l81.503 47.056 15-25.98-66.503-38.396z"/><path d="m255.32 476-66.502-38.396-15 25.981 81.502 47.056 81.503-47.056-15-25.981z"/><path d="m446.434 365.66-66.502 38.396 15 25.98 81.502-47.056v-94.11h-30z"/><path d="m394.932 80.604-15 25.981 66.502 38.395v76.791h30v-94.111z"/><path d="m416.401 348.32v-168.679l-146.081 84.339v168.68z"/><path d="m109.239 153.66 146.081 84.34 146.081-84.34-146.081-84.34z"/><path d="m94.24 348.32 146.08 84.34v-168.68l-146.08-84.339z"/></g></svg>