<?xml version="1.0" encoding="iso-8859-1"?>
<!-- Generator: Adobe Illustrator 16.0.0, SVG Export Plug-In . SVG Version: 6.00 Build 0)  -->
<!DOCTYPE svg PUBLIC "-//W3C//DTD SVG 1.1//EN" "http://www.w3.org/Graphics/SVG/1.1/DTD/svg11.dtd">
<svg version="1.1" id="Capa_1" xmlns="http://www.w3.org/2000/svg" xmlns:xlink="http://www.w3.org/1999/xlink" x="0px" y="0px"
	 width="394px" height="394px" viewBox="0 0 394 394" style="enable-background:new 0 0 394 394;" xml:space="preserve">
<g>
	<g>
		<path d="M344,85.75H239.779V71.029c0-23.588-19.191-42.779-42.779-42.779s-42.779,19.191-42.779,42.779V85.75H50
			c-27.614,0-50,22.386-50,50v180c0,27.614,22.386,50,50,50h294c27.614,0,50-22.386,50-50v-180C394,108.136,371.614,85.75,344,85.75
			z M183.043,286.975c0,4.353-1.404,8.365-3.764,11.647v-3.485c0-10.094-8.183-18.276-18.276-18.276H133.24
			c17.802-5.345,30.773-21.849,30.773-41.39c0-23.869-19.35-43.219-43.218-43.219c-23.869,0-43.219,19.35-43.219,43.219
			c0,19.541,12.973,36.043,30.774,41.39H80.587c-10.093,0-18.276,8.184-18.276,18.276v3.485c-2.359-3.282-3.764-7.297-3.764-11.647
			V202.48c0-11.046,8.955-20,20-20h84.494c11.046,0,20,8.954,20,20v84.493L183.043,286.975L183.043,286.975z M212.779,102.471
			c0,8.701-7.079,15.779-15.779,15.779c-8.701,0-15.779-7.079-15.779-15.779V71.03c0-8.701,7.079-15.779,15.779-15.779
			s15.779,7.079,15.779,15.779V102.471z M315.333,271.75c0,11.046-8.954,20-20,20h-50c-11.045,0-20-8.954-20-20v-2.333
			c0-11.046,8.955-20,20-20h50c11.046,0,20,8.954,20,20V271.75z M337.333,205.75c0,11.046-8.954,20-20,20h-72
			c-11.045,0-20-8.954-20-20v-2.333c0-11.046,8.955-20,20-20h72c11.046,0,20,8.954,20,20V205.75z"/>
	</g>
</g>
<g>
</g>
<g>
</g>
<g>
</g>
<g>
</g>
<g>
</g>
<g>
</g>
<g>
</g>
<g>
</g>
<g>
</g>
<g>
</g>
<g>
</g>
<g>
</g>
<g>
</g>
<g>
</g>
<g>
</g>
</svg>
