<?xml version="1.0" encoding="iso-8859-1"?>
<!-- Generator: Adobe Illustrator 19.0.0, SVG Export Plug-In . SVG Version: 6.00 Build 0)  -->
<svg version="1.1" id="Capa_1" xmlns="http://www.w3.org/2000/svg" xmlns:xlink="http://www.w3.org/1999/xlink" x="0px" y="0px"
	 viewBox="0 0 433.664 433.664" style="enable-background:new 0 0 433.664 433.664;" xml:space="preserve">
<g>
	<g>
		<g>
			<path d="M258.048,37.658h-82.944c-8.483,0-15.36,6.877-15.36,15.36v327.526c0,8.483,6.877,15.36,15.36,15.36h82.944
				c8.483,0,15.36-6.877,15.36-15.36V53.018C273.408,44.534,266.531,37.658,258.048,37.658z"/>
			<path d="M418.304,228.634H335.36c-8.483,0-15.36,6.877-15.36,15.36v136.653c0,8.483,6.877,15.36,15.36,15.36h82.944
				c8.483,0,15.36-6.877,15.36-15.36V243.994C433.664,235.51,426.787,228.634,418.304,228.634z"/>
			<path d="M98.304,160.026H15.36c-8.483,0-15.36,6.877-15.36,15.36v205.056c0,8.483,6.877,15.36,15.36,15.36h82.944
				c8.483,0,15.36-6.877,15.36-15.36V175.386C113.664,166.903,106.787,160.026,98.304,160.026z"/>
		</g>
	</g>
</g>
<g>
</g>
<g>
</g>
<g>
</g>
<g>
</g>
<g>
</g>
<g>
</g>
<g>
</g>
<g>
</g>
<g>
</g>
<g>
</g>
<g>
</g>
<g>
</g>
<g>
</g>
<g>
</g>
<g>
</g>
</svg>
