<?xml version="1.0" encoding="iso-8859-1"?>
<!-- Generator: Adobe Illustrator 18.1.1, SVG Export Plug-In . SVG Version: 6.00 Build 0)  -->
<svg version="1.1" id="Capa_1" xmlns="http://www.w3.org/2000/svg" xmlns:xlink="http://www.w3.org/1999/xlink" x="0px" y="0px"
	 viewBox="0 0 15.752 15.752" style="enable-background:new 0 0 15.752 15.752;" xml:space="preserve">
<g>
	<g>
		<path style="fill:#030104;" d="M9.284,1.408c-0.272,0-0.539,0.021-0.801,0.053c3.196,0.392,5.675,3.112,5.675,6.415
			s-2.479,6.022-5.675,6.414c0.262,0.033,0.529,0.054,0.801,0.054c3.571,0,6.468-2.896,6.468-6.468
			C15.752,4.303,12.855,1.408,9.284,1.408z"/>
		<path style="fill:#030104;" d="M12.936,7.876c0-3.572-2.896-6.468-6.468-6.468S0,4.304,0,7.876c0,3.571,2.896,6.468,6.468,6.468
			S12.936,11.447,12.936,7.876z M8.129,10.548H4.871v-0.344c0.096-0.007,0.247-0.02,0.452-0.042c0.204-0.02,0.345-0.041,0.423-0.064
			c0.1-0.032,0.177-0.085,0.229-0.157c0.053-0.072,0.08-0.182,0.08-0.326V6.22H4.851V5.814h0.266c0.348,0,0.66-0.064,0.936-0.194
			c0.275-0.128,0.473-0.268,0.592-0.416h0.401c-0.01,0.209-0.02,0.455-0.029,0.735S7.002,6.471,7.002,6.693v2.868
			c0,0.112,0.025,0.214,0.075,0.302c0.05,0.089,0.122,0.154,0.215,0.195c0.084,0.036,0.221,0.068,0.412,0.098
			c0.19,0.028,0.331,0.045,0.425,0.048C8.129,10.204,8.129,10.548,8.129,10.548z"/>
	</g>
</g>
<g>
</g>
<g>
</g>
<g>
</g>
<g>
</g>
<g>
</g>
<g>
</g>
<g>
</g>
<g>
</g>
<g>
</g>
<g>
</g>
<g>
</g>
<g>
</g>
<g>
</g>
<g>
</g>
<g>
</g>
</svg>
