<?xml version="1.0" encoding="UTF-8" standalone="no"?>
<!-- Created with Inkscape (http://www.inkscape.org/) -->

<svg
   xmlns:dc="http://purl.org/dc/elements/1.1/"
   xmlns:cc="http://creativecommons.org/ns#"
   xmlns:rdf="http://www.w3.org/1999/02/22-rdf-syntax-ns#"
   xmlns:svg="http://www.w3.org/2000/svg"
   xmlns="http://www.w3.org/2000/svg"
   xmlns:sodipodi="http://sodipodi.sourceforge.net/DTD/sodipodi-0.dtd"
   xmlns:inkscape="http://www.inkscape.org/namespaces/inkscape"
   version="1.1"
   id="svg2"
   xml:space="preserve"
   width="10985.333"
   height="2524"
   viewBox="0 0 10985.333 2524"
   sodipodi:docname="doar-digital.svg"
   inkscape:version="0.92.4 (5da689c313, 2019-01-14)"><metadata
     id="metadata8"><rdf:RDF><cc:Work
         rdf:about=""><dc:format>image/svg+xml</dc:format><dc:type
           rdf:resource="http://purl.org/dc/dcmitype/StillImage" /><dc:title></dc:title></cc:Work></rdf:RDF></metadata><defs
     id="defs6"><clipPath
       clipPathUnits="userSpaceOnUse"
       id="clipPath18"><path
         d="M 0,1893 H 8239 V 0 H 0 Z"
         id="path16"
         inkscape:connector-curvature="0" /></clipPath></defs><sodipodi:namedview
     pagecolor="#ffffff"
     bordercolor="#666666"
     borderopacity="1"
     objecttolerance="10"
     gridtolerance="10"
     guidetolerance="10"
     inkscape:pageopacity="0"
     inkscape:pageshadow="2"
     inkscape:window-width="1366"
     inkscape:window-height="705"
     id="namedview4"
     showgrid="false"
     inkscape:zoom="0.036230126"
     inkscape:cx="4032.8274"
     inkscape:cy="2507.7384"
     inkscape:window-x="-8"
     inkscape:window-y="-8"
     inkscape:window-maximized="1"
     inkscape:current-layer="g10" /><g
     id="g10"
     inkscape:groupmode="layer"
     inkscape:label="logotipo1"
     transform="matrix(1.3333333,0,0,-1.3333333,0,2524)"><path
       inkscape:connector-curvature="0"
       id="path22"
       style="fill:#f40c0c;fill-opacity:1;fill-rule:nonzero;stroke:none"
       d="m 4384.0127,1532.1838 c -4.133,25.021 -11.213,47.675 -24.959,68.565 -47.229,88.421 -120.283,141.135 -219.062,157.91 -64.329,10.924 -128.545,8.781 -192.187,-4.796 -94.756,-20.216 -181.308,-56.751 -252.64,-125.286 -18.831,-18.091 -22.953,-54.59 -49.589,-56.621 -25.4,-1.937 -51.826,14.885 -78.339,21.189 -65.109,15.481 -129.677,34.252 -198.031,29.663 -89.24,-5.991 -168.988,-32.163 -222.398,-108.763 -52.745,-75.647 -69.589,-161.165 -57.734,-252.124 11.798,-90.516 58.346,-163.18 119.994,-227.658 26.478,-28.706 57.175,-51.87 92.905,-67.597 29.284,-12.889 58.233,-28.286 92.144,-23.656 4.011,-1.126 9.108,-4.332 11.802,-2.928 5.05,2.634 2.525,7.385 -1.112,10.402 -4.031,3.344 -8.628,6.013 -12.62,9.398 -60.688,51.451 -122.259,102.082 -162.96,172.429 -29.245,50.42 -59.444,100.38 -62.967,160.962 -3.785,65.095 19.939,119.117 80.337,151.378 44.987,24.028 93.821,25.684 141.723,24.59 77.866,-1.779 153.772,-18.35 227.649,-44.036 37.833,-13.154 38.815,-12.251 63.793,20.355 48.446,63.245 105.812,115.852 177.496,151.741 67.692,33.891 136.565,42.108 209.65,15.563 48.55,-17.633 84.48,-49.861 118.429,-86.143 9.426,-10.686 16.065,-22.892 21.545,-36.071 40.074,-96.368 30.605,-194.086 4.735,-290.863 -48.13,-180.049 -149.728,-329.362 -274.599,-464.348 -22.965,-24.825 -46.985,-48.524 -71.685,-71.516 4.142,1.158 8.422,1.791 12.735,1.791 21.697,0 39.018,-13.667 46.426,-32.374 1.822,1.067 3.647,2.125 5.462,3.207 11.163,-0.114 20.166,5.272 29.09,11.135 105.693,69.44 190.429,159.571 257.927,265.724 54.169,85.192 95.363,176.483 125.69,273.212 35.422,112.974 61.081,226.105 41.35,345.566" /><path
       inkscape:connector-curvature="0"
       id="path26"
       style="fill:#000000;fill-opacity:0.26126125;fill-rule:nonzero;stroke:none"
       d="m 3229.2266,1132.3104 c -71.36,72.961 -105.594,218.564 -24.061,292.707 22.807,20.739 49.111,35.094 78.518,41.694 88.088,19.772 175.12,8.794 261.308,-13.004 28.97,-7.327 58.585,-13.7 85.966,-25.149 17.591,-7.355 25.558,-2.198 34.589,10.383 30.493,42.482 66.005,80.519 106.734,113.117 61.747,49.42 129.974,86.97 211.486,83.923 77.611,-2.901 146.49,-29.522 194.802,-95.128 3.041,-4.13 4.544,-9.393 6.765,-14.131 -20.253,4.531 -33.649,20.996 -52.386,29.167 -100.872,43.99 -192.364,20.41 -280.255,-35.045 -55.255,-34.863 -98.794,-82.292 -137.029,-134.112 -14.389,-19.502 -26.763,-20.011 -46.627,-13.213 -86.263,29.524 -174.874,48.378 -266.362,46.203 -48.387,-1.15 -96.27,-8.67 -137.142,-39.86 -58.353,-44.529 -68.963,-104.414 -59.287,-172.12 3.783,-26.48 20.63,-48.693 22.981,-75.432" /><path
       inkscape:connector-curvature="0"
       id="path30"
       style="fill:#137abd;fill-opacity:1;fill-rule:nonzero;stroke:none"
       d="m 4275.1265,640.1577 c -78.538,-57.322 -155.71,-116.57 -235.329,-172.333 -49.922,-34.964 -109.177,-46.388 -168.914,-52.659 -83.024,-8.717 -166.273,-13.03 -249.823,-12.09 -81.396,0.915 -161.282,8.58 -237.5,40.394 -29.504,12.315 -60.749,20.031 -92.799,23.091 -69.41,6.628 -128.326,-15.307 -177.078,-65.185 -33.704,-34.482 -43.777,-34.378 -78.061,0.451 -31.729,32.232 -65.023,62.651 -100.485,90.773 -29.365,23.287 -31.625,42.28 -7.12,69.68 49.109,54.912 101.498,106.103 168.182,140.093 73.753,37.594 152.283,48.602 233.871,42.007 9.814,-0.794 19.939,-3.625 28.937,-7.688 85.084,-38.411 175.351,-51.225 267.473,-53.677 50.795,-1.352 101.661,-0.146 152.494,0.092 18.871,0.088 37.644,-0.246 56.009,-5.31 31.089,-8.573 53.169,-27.33 64.917,-57.607 8.401,-21.652 2.901,-30.272 -20.493,-31.634 -107.208,-6.241 -214.51,-5.132 -321.807,-3.686 -32.616,0.44 -65.221,1.648 -97.836,2.227 -15.924,0.283 -35.215,-16.67 -35.206,-32.33 0.01,-19.341 15.687,-22.055 30.142,-24.303 9.866,-1.533 19.985,-1.963 29.993,-1.986 69.035,-0.161 138.071,-0.085 207.107,-0.085 v -0.584 c 69.664,0 139.329,0.179 208.993,-0.097 24.576,-0.097 44.504,6.96 60.874,27.038 21.838,26.784 51.473,44.068 83.461,56.192 58.014,21.988 116.227,43.509 175.672,61.457 20.689,6.247 39.63,4.538 55.771,-11.475 7.709,-7.649 8.787,-13.298 -1.445,-20.766 m -1196.667,-381.326 c -29.543,-27.101 -59.359,-53.909 -88.6,-81.332 -7.496,-7.031 -11.793,-5.157 -18.406,1.09 -88.369,83.48 -176.852,166.839 -265.756,249.748 -9.599,8.951 -8.137,13.745 0.462,21.75 25.682,23.907 51.008,48.229 75.689,73.164 8.192,8.276 12.855,7.687 21.244,0.111 91.11,-82.276 182.618,-164.112 274.071,-246.009 3.161,-2.831 6.873,-5.047 10.925,-7.981 -4.708,-5.186 -6.959,-8.091 -9.629,-10.541 m 1293.804,415.849 c -4.414,4.414 -9.29,8.463 -14.369,12.099 -68.371,48.941 -142.678,57.82 -221.484,31.204 -50.487,-17.052 -99.546,-37.902 -148.076,-59.901 -9.224,-4.181 -18.695,-7.884 -24.902,2.454 -12.005,19.994 -28.305,36.378 -42.757,54.313 -58.091,38.407 -123.551,40.28 -189.911,39.009 -45.805,-0.877 -91.691,-1.513 -137.453,0.148 -62.862,2.281 -124.542,13.031 -183.092,36.802 -47.829,19.42 -96.626,29.261 -148.303,23.689 -9.7,-1.046 -20.07,-3.239 -29.485,2.389 -16.781,-11.877 -37.11,-8.009 -55.632,-12.048 -122.873,-26.795 -216.528,-98.428 -296.346,-191.305 -27.784,-32.331 -35.907,-34.642 -69.674,-10.333 -9.884,7.116 -19.347,7.938 -29.886,3.111 -10.982,-5.03 -20.002,-12.755 -28.813,-20.857 -39.244,-36.085 -78.559,-72.092 -117.921,-108.048 -26.219,-23.951 -27.055,-45.362 -2.423,-70.816 4.795,-4.954 9.919,-9.596 15.006,-14.259 61.961,-56.798 124.019,-113.492 185.891,-170.386 36.02,-33.122 71.46,-66.88 107.707,-99.749 28.106,-25.485 51.951,-27.323 76.816,-4.902 44.718,40.322 88.847,81.317 132.504,122.787 20.232,19.219 19.886,29.816 2.346,50.998 -14.194,17.14 -16.338,30.403 -4.755,43.871 40.27,46.822 87.521,74.499 153.292,63.508 41.156,-6.878 80.521,-18.914 119.906,-31.043 78.05,-24.037 157.675,-35.246 239.102,-35.295 95.051,-0.058 188.752,13.177 282.35,28.034 42.244,6.705 79.99,21.619 115.403,46.411 82.7,57.893 167.07,113.399 250.697,169.971 20.257,13.703 40.532,27.407 60.303,41.794 23.768,17.296 24.849,35.465 3.959,56.35" /><path
       inkscape:connector-curvature="0"
       id="path34"
       style="fill:#f40c0c;fill-opacity:1;fill-rule:nonzero;stroke:none"
       d="m 2476.7446,1254.3551 c 16.572,23.89 31.038,44.855 49.729,62.46 42.407,39.941 106.143,52.92 153.213,31.424 11.281,-5.151 16.62,-11.238 15.089,-24.682 -4.351,-38.22 -6.917,-76.64 -10.946,-114.901 -2.55,-24.215 -12.561,-31.448 -37.874,-29.106 -22.954,2.124 -45.76,6.533 -68.997,3.487 -47.302,-6.2 -87.538,-51.691 -87.54,-99.163 -0,-111.766 -0.246,-223.533 0.3,-335.296 0.07,-14.506 -2.84,-20.047 -18.79,-19.703 -50.089,1.08 -100.218,0.699 -150.325,0.175 -11.723,-0.122 -16.7,1.921 -16.669,15.464 0.46,195.268 0.42,390.538 0.066,585.806 -0.023,12.328 3.011,16.606 15.902,16.244 32.098,-0.902 64.245,0.139 96.358,-0.423 34.054,-0.595 44.431,-9.668 50.987,-42.59 3,-15.066 5.83,-30.166 9.497,-49.196" /><path
       inkscape:connector-curvature="0"
       id="path38"
       style="fill:#1679bd;fill-opacity:1;fill-rule:nonzero;stroke:none"
       d="m 6924.6709,1006.5638 c 0,51.419 -0.4,102.844 0.253,154.255 0.187,14.761 -1.794,23.022 -19.795,21.872 -74.588,-4.766 -65.477,17.209 -65.141,67.46 0.262,39.073 -0.24,42.255 39.517,45.92 43.443,4.004 65.272,22.506 69.825,66.716 3.11,30.181 13.893,59.532 20.629,89.393 4.23,18.745 15.361,29.357 34.317,29.841 29.013,0.741 58.07,-0.236 87.082,0.531 16.015,0.423 14.084,-9.914 14.084,-19.823 0,-44.785 0.841,-89.593 -0.409,-134.343 -0.501,-17.938 5.524,-22.509 22.586,-21.936 35.629,1.197 71.356,-0.499 106.982,0.739 16.752,0.582 21.146,-5.19 20.517,-21.096 -1.147,-28.982 -0.862,-58.056 -0.103,-87.063 0.345,-13.172 -4.421,-17.094 -17.262,-16.857 -37.314,0.687 -74.659,-0.224 -111.975,0.47 -13.857,0.257 -20.853,-1.756 -20.711,-18.543 0.795,-93.709 -0.138,-187.434 0.631,-281.144 0.327,-39.859 27.488,-57.273 63.966,-40.508 23.764,10.922 38.526,6.513 51.142,-15.913 12.568,-22.343 26.827,-43.809 41.459,-64.887 7.255,-10.45 7.472,-16.539 -4.312,-23.407 -75.408,-43.946 -155.053,-59.26 -238.168,-28.241 -61.558,22.973 -90.305,73.982 -93.853,137.383 -2.961,52.906 -0.608,106.109 -0.608,159.18 -0.216,0 -0.435,10e-4 -0.653,10e-4" /><path
       inkscape:connector-curvature="0"
       id="path42"
       style="fill:#1679bd;fill-opacity:1;fill-rule:nonzero;stroke:none"
       d="m 8114.4727,1139.5387 c 0,-137.593 -0.37,-275.188 0.438,-412.777 0.109,-18.526 -4.46,-24.073 -23.306,-23.446 -43.89,1.461 -87.948,2.102 -131.767,-0.188 -23.749,-1.242 -26.408,7.921 -26.332,28.117 0.69,183.179 0.405,366.361 0.405,549.542 0,90.348 0.547,180.701 -0.452,271.037 -0.206,18.619 4.61,24.054 23.384,23.44 43.892,-1.433 87.9,-1.515 131.785,0.017 20.128,0.702 26.53,-4.156 26.369,-25.453 -1.027,-136.757 -0.524,-273.525 -0.524,-410.289" /><path
       inkscape:connector-curvature="0"
       id="path46"
       style="fill:#1679bd;fill-opacity:1;fill-rule:nonzero;stroke:none"
       d="m 6760.3584,1005.0767 c 0,-92.788 -0.534,-185.582 0.451,-278.359 0.197,-18.589 -4.57,-23.962 -23.342,-23.402 -47.189,1.405 -94.457,0.939 -141.676,0.177 -14.02,-0.227 -18.34,3.898 -18.308,18.134 0.427,188.889 0.527,377.78 -0.111,566.667 -0.061,17.78 7.095,20.343 22.031,20.131 46.393,-0.656 92.82,-0.977 139.196,0.135 17.697,0.425 22.239,-5.599 22.107,-22.637 -0.731,-93.61 -0.349,-187.23 -0.348,-280.846" /><path
       inkscape:connector-curvature="0"
       id="path50"
       style="fill:#1679bd;fill-opacity:1;fill-rule:nonzero;stroke:none"
       d="m 5826.0029,1004.9862 c 10e-4,-92.865 -0.582,-185.737 0.483,-278.591 0.218,-19.011 -5.218,-23.58 -23.535,-23.054 -46.402,1.333 -92.881,0.991 -139.305,0.121 -14.366,-0.27 -17.941,4.291 -17.91,18.216 0.426,189.046 0.455,378.094 -0.031,567.141 -0.039,15.142 3.975,20.005 19.405,19.695 46.423,-0.934 92.898,-1.134 139.308,0.069 17.83,0.463 22.087,-5.488 21.948,-22.516 -0.761,-93.689 -0.364,-187.386 -0.363,-281.081" /><path
       inkscape:connector-curvature="0"
       id="path54"
       style="fill:#1679bd;fill-opacity:1;fill-rule:nonzero;stroke:none"
       d="m 5845.1299,1472.9031 c 0.028,-58.629 -49.857,-106.352 -111.127,-106.31 -57.03,0.038 -106.768,48.991 -107.1,105.41 -0.344,58.584 48.127,106.886 107.35,106.973 61.801,0.092 110.848,-46.83 110.877,-106.073" /><path
       inkscape:connector-curvature="0"
       id="path58"
       style="fill:#1679bd;fill-opacity:1;fill-rule:nonzero;stroke:none"
       d="m 6560.2021,1472.3915 c -0.223,59.012 48.345,106.864 108.179,106.586 60.916,-0.283 109.134,-46.496 109.849,-105.28 0.697,-57.299 -48.759,-106.092 -108.556,-107.101 -58.783,-0.992 -109.252,47.783 -109.472,105.795" /><path
       inkscape:connector-curvature="0"
       id="path62"
       style="fill:#f40c0c;fill-opacity:1;fill-rule:nonzero;stroke:none"
       d="m 677.2136,1022.4343 c -36.354,-86.787 -104.137,-131.23 -196.915,-136.604 -46.119,-2.671 -92.51,-0.334 -138.752,-1.389 -13.575,-0.31 -15.55,4.953 -15.495,16.703 0.405,87.376 0.22,174.756 0.219,262.134 0,86.093 0.477,172.192 -0.418,258.276 -0.17,16.444 4.606,20.178 20.291,19.684 46.856,-1.476 94.088,2.067 140.588,-2.412 111.009,-10.694 180.874,-74.349 206.062,-184.096 18.087,-78.807 15.96,-157.002 -15.58,-232.296 m 224.925,224.644 c -37.598,221.064 -217.658,342.181 -415.345,347.553 -114.999,3.125 -230.143,0.766 -345.219,1.437 -12.731,0.075 -17.556,-2.132 -17.533,-16.405 0.45,-277.695 0.473,-555.391 -0.041,-833.087 -0.029,-15.21 4.835,-17.769 18.548,-17.61 61.071,0.706 122.155,0.306 194.722,0.306 60.396,1.867 132.539,-4.535 204.149,5.755 96.907,13.926 182.957,52.004 250.853,123.381 104.352,109.702 134.621,243.117 109.866,388.67" /><path
       inkscape:connector-curvature="0"
       id="path66"
       style="fill:#f40c0c;fill-opacity:1;fill-rule:nonzero;stroke:none"
       d="m 1387.9272,924.6779 c -16.902,-46.749 -53.928,-67.653 -107.987,-66.917 -51.538,0.703 -87.179,24.097 -104.752,69.692 -13.827,35.876 -17.32,73.484 -16.811,108.086 -0.207,40.961 2.965,77.986 16.914,113.132 18.497,46.606 53.553,68.9 106.955,69.112 53.959,0.214 89.79,-20.555 106.576,-68.706 25.917,-74.346 25.935,-150.194 -0.895,-224.399 m 208.809,138.898 c -6.365,101.662 -44.207,186.76 -132.22,243.681 -63.297,40.938 -134.407,52.88 -208.356,47.817 -94.735,-6.486 -175.458,-41.93 -232.55,-120.992 -38.868,-53.823 -54.482,-115.674 -56.42,-180.965 -2.072,-69.818 9.892,-136.951 47.754,-197.169 46.126,-73.366 113.965,-114.948 198.256,-129.739 90.931,-15.955 178.461,-6.231 256.591,46.407 86.895,58.543 121.633,145.52 127.692,251.629 2.239,9.904 0.173,24.635 -0.747,39.331" /><path
       inkscape:connector-curvature="0"
       id="path70"
       style="fill:#1679bd;fill-opacity:1;fill-rule:nonzero;stroke:none"
       d="m 5326.1758,986.5675 c -35.815,-82.253 -101.91,-124.268 -190.803,-128.812 -43.859,-2.242 -87.941,0.211 -131.89,-0.812 -15.94,-0.372 -19.203,5.556 -19.098,20.175 0.603,83.778 0.293,167.562 0.292,251.344 -0,82.123 0.489,164.251 -0.376,246.365 -0.193,18.462 3.084,26.449 24.117,25.521 43.062,-1.901 86.472,1.939 129.352,-1.462 103.838,-8.237 171.515,-63.445 200.819,-164.221 24.301,-83.57 22.625,-167.632 -12.413,-248.098 m -178.156,563.678 c -112.658,3.233 -225.468,0.894 -338.196,2.278 -20.019,0.246 -24.796,-5.96 -24.682,-25.199 0.79,-132.635 0.415,-265.276 0.415,-397.916 10e-4,-134.298 0.23,-268.596 -0.304,-402.892 -0.064,-15.908 1.929,-23.361 20.926,-23.19 106.123,0.955 212.281,-0.905 318.388,0.745 236.475,3.675 400.188,146.706 428.508,372.461 31.85,253.897 -148.734,466.356 -405.055,473.713" /><path
       inkscape:connector-curvature="0"
       id="path74"
       style="fill:#f40c0c;fill-opacity:1;fill-rule:nonzero;stroke:none"
       d="m 2000.3359,888.9495 c -25.373,-24.933 -54.69,-42.317 -90.812,-45.487 -12.074,-1.06 -24.46,-1.099 -36.483,0.294 -26.922,3.12 -41.691,15.03 -46.795,35.82 -6.813,27.745 0.888,51.13 22.819,66.071 25.011,17.038 54.118,22.912 83.21,27.53 20.181,3.204 40.893,2.973 61.145,5.844 12.369,1.754 14.387,-3.316 13.853,-13.576 -0.534,-10.232 -0.117,-20.513 -0.117,-33.424 -3.699,-12.378 6.929,-29.561 -6.82,-43.072 m 186.771,58.192 c 0,57.209 0.271,114.42 -0.058,171.627 -0.623,108.194 -55.964,191.462 -149.305,224.886 -44.56,15.956 -90.692,16.486 -137.043,12.311 -80.066,-7.211 -152.001,-34.862 -214.605,-86.037 -8.536,-6.978 -10.716,-11.896 -3.941,-21.734 9.421,-13.681 16.564,-28.907 25.156,-43.187 18.626,-30.962 45.539,-41.43 80.677,-31.834 15.013,4.1 28.392,11.777 41.893,19.148 29.866,16.305 61.399,25.473 95.794,24.275 43.567,-1.517 70.959,-24.875 78.404,-67.512 2.665,-15.265 2.818,-30.63 3.351,-46.049 0.382,-11.044 -3.382,-13.646 -14.133,-14.165 -44.222,-2.132 -88.514,-4.649 -131.91,-14.299 -61.897,-13.764 -121.047,-33.202 -169.14,-77.735 -74.245,-68.745 -59.538,-231.081 63.993,-265.872 91.657,-25.813 175.142,-9.44 249.638,50.779 21.417,17.313 23.028,17.281 31.455,-8.679 9.995,-30.796 29.986,-44.626 61.775,-43.886 23.776,0.553 47.61,0.892 71.349,-0.204 14.01,-0.647 17.036,4.574 16.921,17.616 -0.588,66.846 -0.272,133.7 -0.271,200.551" /><path
       inkscape:connector-curvature="0"
       id="path78"
       style="fill:#1679bd;fill-opacity:1;fill-rule:nonzero;stroke:none"
       d="m 6287.3037,635.5581 c -30.404,-12.661 -62.833,-12.991 -96.859,-13.719 -27.126,1.086 -56.152,0.667 -83.828,11.231 -27.688,10.57 -40.76,30.152 -35.959,54.537 5.379,27.313 30.65,47.865 57.462,46.484 47.007,-2.42 94.312,-1.542 140.765,-10.464 18.477,-3.549 38.536,-6.764 48.332,-26.038 11.302,-22.237 -2.41,-50.578 -29.913,-62.031 m -103.665,560.188 c 53.639,-0.255 82.749,-27.393 82.71,-77.107 -0.041,-51.754 -31.085,-81.055 -85.374,-80.584 -52.302,0.454 -83.215,30.752 -82.692,81.049 0.532,51.1 29.274,76.908 85.356,76.642 m 171.498,-338.112 c -40.071,7.083 -80.454,10.368 -121.164,11.433 -33.881,0.887 -68.089,1.268 -101.027,10.753 -13.121,3.778 -26.252,11.059 -22.239,27.785 3.65,15.201 14.192,21.958 31.633,20.713 35.527,-2.535 71.13,-2.853 106.548,4.002 126.125,24.409 197.953,119.199 173.945,228.625 -2.612,11.903 2.134,16.598 12.93,18.439 80.167,13.667 61.512,29.391 63.683,86.961 0.062,1.657 -0.196,3.346 0.032,4.973 2.211,15.824 -5.559,19.51 -20.138,19.251 -43.131,-0.764 -86.292,0.178 -129.428,-0.469 -20.162,-0.302 -38.699,3.67 -57.98,9.999 -86.032,28.243 -171.745,26.86 -253.697,-13.802 -132.587,-65.787 -143.409,-233.062 -21.583,-316.053 4.414,-3.007 10.702,-4.287 12.032,-10.829 -88.317,-58.629 -100.713,-131.372 -31.093,-194.195 -8.952,-4.677 -16.267,-8.484 -23.57,-12.317 -83.677,-43.919 -71.992,-141.826 -19.931,-188.297 19.375,-17.295 41.271,-30.695 65.563,-39.694 93.908,-34.784 189.96,-37.345 285.981,-12.775 62.302,15.943 116.569,47.608 153.038,103.411 69.855,106.888 21.425,219.996 -103.535,242.086" /><path
       inkscape:connector-curvature="0"
       id="path82"
       style="fill:#1679bd;fill-opacity:1;fill-rule:nonzero;stroke:none"
       d="m 7599.2832,832.4893 c -25.933,-15.723 -54.626,-17.979 -83.865,-15.964 -29.737,2.048 -45.322,14.317 -50.759,38.498 -5.758,25.61 4.317,49.168 27.901,63.29 33.612,20.126 71.662,24.21 109.385,28.351 40.314,4.426 40.388,3.75 40.388,-47.56 10.509,-34.141 -16.321,-50.408 -43.05,-66.615 m 219.436,83.986 c -10e-4,57.194 0.457,114.392 -0.097,171.581 -1.15,118.903 -72.855,209.319 -182.512,226.79 -93.122,14.837 -181.512,-2.348 -262.995,-50.068 -60.556,-35.463 -60.969,-40.667 -21.797,-98.986 14.054,-20.924 32.632,-31.046 58.609,-30.156 22.855,0.782 41.228,11.693 60.058,21.658 29.14,15.42 59.427,24.857 92.662,23.534 41.483,-1.652 65.643,-21.705 75.933,-61.727 4.217,-16.407 2.976,-32.887 3.92,-49.378 0.664,-11.603 -5.013,-12.941 -14.84,-13.629 -33.017,-2.312 -66.181,-4.273 -98.866,-9.181 -66.93,-10.049 -131.537,-27.743 -184.776,-72.488 -50.319,-42.291 -62.882,-97.64 -48.954,-159.55 13.191,-58.631 50.573,-96.111 108.509,-110.989 88.523,-22.732 169.328,-5.99 239.602,53.341 16.833,14.212 22.291,11.067 29.083,-8.426 12.961,-37.195 24.819,-44.389 64.578,-44.966 19.064,-0.276 38.227,1.115 57.177,-0.381 18.807,-1.484 25.683,3.604 25.223,24.044 -1.417,62.964 -0.516,125.981 -0.517,188.977" /></g></svg>